<?xml version="1.0" standalone="no"?>
<!DOCTYPE svg PUBLIC "-//W3C//DTD SVG 20010904//EN"
 "http://www.w3.org/TR/2001/REC-SVG-20010904/DTD/svg10.dtd">
<svg version="1.0" xmlns="http://www.w3.org/2000/svg"
 width="285.000000pt" height="102.000000pt" viewBox="0 0 285.000000 102.000000"
 preserveAspectRatio="xMidYMid meet">
<metadata>
Created by potrace 1.10, written by Peter Selinger 2001-2011
</metadata>
<g transform="translate(0.000000,102.000000) scale(0.100000,-0.100000)"
fill="#ffffff" stroke="none">
<path d="M190 916 l-95 -53 0 -113 0 -112 94 -54 94 -54 96 53 96 54 3 111 3
110 -33 20 c-18 10 -62 35 -98 55 l-65 36 -95 -53z m175 -34 l70 -38 0 -93 0
-93 -74 -41 -74 -41 -64 34 c-92 47 -93 49 -93 139 0 62 4 81 18 94 22 20 123
77 137 77 6 0 42 -17 80 -38z"/>
<path d="M1420 780 c0 -5 11 -10 25 -10 14 0 25 5 25 10 0 6 -11 10 -25 10
-14 0 -25 -4 -25 -10z"/>
<path d="M550 705 c0 -43 3 -55 16 -55 12 0 14 8 8 45 -6 41 -5 45 15 45 18 0
21 -6 21 -45 0 -30 4 -45 13 -45 9 0 13 16 13 55 l-1 55 -42 0 -43 0 0 -55z"/>
<path d="M676 744 c-37 -37 -3 -98 50 -92 18 2 34 13 43 29 13 24 13 29 -2 53
-20 30 -66 35 -91 10z m58 -10 c19 -7 21 -35 4 -52 -16 -16 -23 -15 -42 4 -12
12 -13 20 -6 35 11 20 19 23 44 13z"/>
<path d="M807 725 c4 -26 1 -41 -12 -55 -14 -16 -15 -20 -4 -20 24 0 39 22 39
57 0 24 5 33 16 33 13 0 15 -9 12 -45 -2 -35 0 -45 12 -45 12 0 14 11 12 55
l-4 55 -38 0 c-39 0 -39 0 -33 -35z"/>
<path d="M920 741 c-24 -46 0 -91 49 -91 35 0 51 17 51 55 0 40 -16 55 -57 55
-22 0 -36 -6 -43 -19z m73 -23 c8 -12 7 -21 -2 -32 -18 -22 -38 -20 -51 5 -22
40 29 66 53 27z"/>
<path d="M1050 705 l0 -55 35 0 c19 0 35 -4 35 -10 0 -5 7 -10 15 -10 18 0 20
21 4 37 -6 6 -10 30 -7 52 2 29 0 41 -9 41 -9 0 -13 -15 -13 -45 0 -39 -3 -45
-21 -45 -19 0 -21 5 -17 45 2 31 -1 45 -9 45 -9 0 -13 -17 -13 -55z"/>
<path d="M1170 705 c0 -40 4 -55 14 -55 9 0 12 9 9 28 l-4 27 21 -27 c32 -41
58 -38 30 3 l-22 30 23 25 c22 24 22 24 1 24 -12 0 -23 -8 -27 -20 -3 -11 -11
-20 -17 -20 -6 0 -8 9 -5 20 3 13 0 20 -9 20 -10 0 -14 -14 -14 -55z"/>
<path d="M1280 705 c0 -30 4 -55 9 -55 5 0 19 12 30 28 l20 27 1 -27 c0 -18 5
-28 15 -28 12 0 15 13 15 55 0 42 -3 55 -15 55 -8 0 -15 -3 -15 -7 0 -5 -10
-19 -21 -33 l-21 -25 6 33 c4 24 2 32 -9 32 -11 0 -15 -13 -15 -55z"/>
<path d="M1400 705 c0 -30 4 -55 9 -55 5 0 18 15 30 33 l21 32 0 -32 c0 -23 5
-33 15 -33 12 0 15 13 15 55 0 64 -15 72 -45 23 l-20 -33 -3 33 c-5 53 -22 36
-22 -23z"/>
<path d="M2150 590 c0 -5 11 -10 25 -10 14 0 25 5 25 10 0 6 -11 10 -25 10
-14 0 -25 -4 -25 -10z"/>
<path d="M550 515 c0 -44 3 -55 16 -55 14 0 16 7 11 45 -6 40 -5 45 13 45 11
0 20 5 20 10 0 6 -13 10 -30 10 -30 0 -30 -1 -30 -55z"/>
<path d="M633 544 c-15 -24 -15 -29 -2 -53 27 -49 109 -34 109 20 0 39 -19 59
-55 59 -26 0 -39 -6 -52 -26z m76 -8 c16 -19 -4 -59 -26 -54 -26 5 -39 34 -24
52 17 20 35 20 50 2z"/>
<path d="M771 551 c-25 -45 1 -91 51 -91 29 0 57 25 36 32 -7 3 -21 0 -31 -6
-25 -15 -51 18 -36 46 8 15 17 18 41 13 23 -6 29 -4 26 6 -3 8 -21 15 -41 17
-27 2 -38 -1 -46 -17z"/>
<path d="M900 530 c19 -37 19 -40 3 -49 -21 -11 -11 -26 12 -17 17 6 60 94 52
103 -9 8 -27 -7 -27 -23 0 -21 -18 -17 -25 6 -3 11 -13 20 -21 20 -12 0 -11
-8 6 -40z"/>
<path d="M1000 541 c0 -16 -7 -45 -15 -65 -14 -32 -14 -36 0 -36 8 0 15 5 15
10 0 6 14 10 30 10 17 0 30 -4 30 -10 0 -5 7 -10 16 -10 12 0 14 5 8 18 -4 9
-9 38 -12 65 -4 46 -5 47 -38 47 -31 0 -34 -3 -34 -29z m50 -26 c0 -24 -5 -35
-15 -35 -10 0 -15 11 -15 35 0 24 5 35 15 35 10 0 15 -11 15 -35z"/>
<path d="M1122 528 c-7 -24 -15 -49 -18 -55 -3 -8 1 -13 10 -13 9 0 16 5 16
10 0 6 11 10 25 10 14 0 25 -4 25 -10 0 -5 6 -10 14 -10 12 0 12 8 -3 53 -24
70 -51 76 -69 15z m48 -20 c0 -5 -7 -8 -15 -8 -17 0 -18 2 -9 25 5 13 8 14 15
3 5 -7 9 -16 9 -20z"/>
<path d="M1230 515 c0 -41 4 -55 14 -55 9 0 12 7 9 20 -4 16 0 20 20 20 17 0
28 7 32 20 9 28 -11 50 -46 50 -28 0 -29 -1 -29 -55z m50 20 c0 -8 -7 -15 -15
-15 -8 0 -15 7 -15 15 0 8 7 15 15 15 8 0 15 -7 15 -15z"/>
<path d="M1341 551 c-26 -47 -2 -91 49 -91 30 0 45 13 35 30 -4 6 -13 5 -25
-3 -16 -9 -23 -8 -37 6 -26 26 -5 53 37 49 22 -2 30 2 28 10 -3 7 -21 14 -41
16 -27 2 -38 -1 -46 -17z"/>
<path d="M1450 560 c0 -5 7 -10 15 -10 12 0 13 -9 8 -45 -5 -38 -3 -45 11 -45
12 0 16 10 16 45 0 33 4 45 15 45 8 0 15 5 15 10 0 6 -18 10 -40 10 -22 0 -40
-4 -40 -10z"/>
<path d="M1550 516 l0 -56 34 0 c37 0 62 22 50 42 -4 7 -8 24 -8 38 -1 22 -6
25 -38 28 l-38 3 0 -55z m60 24 c0 -5 -7 -10 -15 -10 -8 0 -15 5 -15 10 0 6 7
10 15 10 8 0 15 -4 15 -10z m0 -45 c0 -8 -7 -15 -15 -15 -8 0 -15 7 -15 15 0
8 7 15 15 15 8 0 15 -7 15 -15z"/>
<path d="M1660 515 l0 -55 35 0 c19 0 35 5 35 10 0 6 -12 10 -26 10 -16 0 -24
5 -22 12 3 7 13 13 23 13 10 0 20 6 22 13 3 7 -5 12 -21 12 -14 0 -26 5 -26
10 0 6 11 10 25 10 14 0 25 5 25 10 0 6 -16 10 -35 10 l-35 0 0 -55z"/>
<path d="M1754 515 c0 -38 4 -55 13 -55 7 0 13 11 13 24 0 17 5 23 18 21 11
-1 16 -10 15 -24 -2 -13 3 -21 12 -21 11 0 15 13 15 55 0 43 -3 55 -16 55 -11
0 -14 -6 -9 -20 5 -16 2 -20 -14 -20 -14 0 -21 6 -21 20 0 11 -6 20 -13 20 -9
0 -13 -17 -13 -55z"/>
<path d="M1870 515 c0 -42 4 -55 15 -55 9 0 14 8 12 21 -1 14 4 23 16 24 12 2
17 -4 17 -21 0 -15 6 -24 15 -24 12 0 15 13 15 55 0 42 -3 55 -15 55 -8 0 -15
-9 -15 -20 0 -14 -7 -20 -21 -20 -16 0 -19 4 -14 20 5 14 2 20 -9 20 -13 0
-16 -12 -16 -55z"/>
<path d="M1985 515 l0 -56 35 3 c32 3 35 6 35 33 0 22 -6 33 -22 40 -13 5 -23
15 -23 22 0 7 -6 13 -12 13 -9 0 -13 -18 -13 -55z m53 -17 c-6 -18 -28 -21
-28 -4 0 9 7 16 16 16 9 0 14 -5 12 -12z"/>
<path d="M2074 515 c1 -37 5 -55 14 -55 8 0 12 18 12 55 0 39 -4 55 -13 55
-10 0 -13 -15 -13 -55z"/>
<path d="M2130 515 c0 -42 3 -55 15 -55 8 0 15 3 15 8 0 4 10 18 21 32 l21 25
-6 -32 c-4 -25 -2 -33 9 -33 11 0 15 13 15 55 0 30 -4 55 -9 55 -5 0 -19 -12
-30 -27 l-20 -28 -1 28 c0 17 -5 27 -15 27 -12 0 -15 -13 -15 -55z"/>
<path d="M560 343 c21 -35 21 -38 4 -50 -20 -14 -13 -28 10 -20 15 6 56 77 56
97 0 18 -22 11 -27 -10 -3 -11 -9 -20 -13 -20 -4 0 -10 9 -13 20 -3 11 -13 20
-22 20 -15 0 -15 -4 5 -37z"/>
<path d="M660 325 c0 -39 4 -55 13 -55 8 0 13 10 13 23 -1 13 5 22 14 22 8 0
16 -10 18 -22 2 -13 9 -23 15 -23 8 0 12 19 12 55 0 37 -4 55 -12 55 -7 0 -13
-9 -13 -20 0 -13 -7 -20 -20 -20 -13 0 -20 7 -20 20 0 11 -4 20 -10 20 -5 0
-10 -25 -10 -55z"/>
<path d="M775 325 c0 -63 12 -70 40 -22 l20 32 3 -32 c5 -54 22 -37 22 22 0
30 -4 55 -9 55 -5 0 -18 -15 -30 -32 l-21 -33 0 33 c0 19 -5 32 -12 32 -9 0
-13 -18 -13 -55z"/>
<path d="M890 326 l0 -56 35 0 c33 0 64 28 48 44 -4 4 -7 19 -8 34 0 24 -4 27
-37 30 l-38 3 0 -55z m60 24 c0 -5 -7 -10 -15 -10 -8 0 -15 5 -15 10 0 6 7 10
15 10 8 0 15 -4 15 -10z m0 -45 c0 -8 -7 -15 -15 -15 -8 0 -15 7 -15 15 0 8 7
15 15 15 8 0 15 -7 15 -15z"/>
<path d="M1000 325 l0 -55 35 0 c19 0 35 5 35 10 0 6 -12 10 -26 10 -16 0 -24
5 -21 13 2 6 11 11 21 9 9 -2 16 4 16 13 0 8 -9 15 -20 15 -11 0 -20 5 -20 10
0 6 11 10 25 10 14 0 25 5 25 10 0 6 -16 10 -35 10 l-35 0 0 -55z"/>
<path d="M1090 325 c0 -42 3 -55 15 -55 8 0 15 9 15 20 0 13 7 20 20 20 25 0
41 29 29 52 -6 12 -21 18 -44 18 l-35 0 0 -55z m58 17 c2 -7 -3 -12 -12 -12
-9 0 -16 7 -16 16 0 17 22 14 28 -4z"/>
<path d="M1203 354 c-15 -24 -15 -29 -2 -53 18 -32 69 -41 90 -15 13 16 11 17
-16 11 -40 -7 -58 4 -53 34 3 21 8 24 41 22 38 -2 50 10 21 21 -34 13 -64 6
-81 -20z"/>
<path d="M1320 325 c0 -30 4 -55 9 -55 5 0 19 12 30 28 l20 27 1 -27 c0 -18 5
-28 15 -28 12 0 15 13 15 55 0 42 -3 55 -15 55 -8 0 -15 -3 -15 -7 0 -5 -10
-19 -21 -33 l-21 -25 6 33 c4 24 2 32 -9 32 -11 0 -15 -13 -15 -55z"/>
<path d="M1430 370 c0 -5 7 -10 15 -10 11 0 15 -12 15 -45 0 -35 4 -45 16 -45
14 0 15 7 10 45 -6 37 -4 45 8 45 9 0 16 5 16 10 0 6 -18 10 -40 10 -22 0 -40
-4 -40 -10z"/>
<path d="M1534 325 l-1 -55 39 0 c21 0 38 5 38 10 0 6 -11 10 -25 10 -15 0
-25 6 -25 14 0 9 7 12 20 9 14 -4 20 0 20 11 0 9 -8 16 -20 16 -11 0 -20 5
-20 10 0 6 11 10 25 10 14 0 25 5 25 10 0 6 -17 10 -37 10 l-38 0 -1 -55z"/>
<path d="M1620 370 c0 -5 7 -10 15 -10 11 0 15 -12 15 -45 0 -33 4 -45 15 -45
11 0 15 12 15 45 0 33 4 45 15 45 8 0 15 5 15 10 0 6 -20 10 -45 10 -25 0 -45
-4 -45 -10z"/>
<path d="M1050 160 l0 -50 33 1 c23 1 26 3 10 6 -28 5 -30 33 -3 33 11 0 20 5
20 10 0 6 -9 10 -20 10 -27 0 -25 28 3 33 16 3 13 5 -10 6 l-33 1 0 -50z"/>
<path d="M1251 200 c-1 -8 -10 -21 -21 -28 -25 -15 -26 -37 -2 -54 11 -7 21
-20 25 -28 5 -13 6 -13 6 0 1 8 10 21 21 28 25 15 26 37 2 54 -11 7 -21 20
-25 28 -5 13 -6 13 -6 0z m-1 -55 c0 -14 -4 -25 -9 -25 -12 0 -19 21 -13 38 8
21 22 13 22 -13z m32 13 c6 -17 -1 -38 -13 -38 -5 0 -9 11 -9 25 0 26 14 34
22 13z"/>
<path d="M2000 160 c0 -27 5 -50 10 -50 6 0 10 20 10 45 0 38 3 45 20 45 17 0
20 -7 20 -45 0 -25 5 -45 10 -45 6 0 10 23 10 50 l0 50 -40 0 -40 0 0 -50z"/>
<path d="M551 146 c-1 -38 -1 -39 19 -21 11 10 20 23 20 29 0 6 -7 3 -15 -7
-13 -18 -14 -17 -18 10 -3 23 -4 21 -6 -11z"/>
<path d="M597 148 c8 -46 13 -48 13 -5 0 21 -4 37 -10 37 -5 0 -7 -14 -3 -32z"/>
<path d="M641 144 c1 -26 3 -31 6 -15 3 17 7 20 13 11 9 -14 30 -5 30 12 0 6
-3 8 -7 5 -3 -4 -15 0 -25 10 -17 15 -18 14 -17 -23z"/>
<path d="M697 148 c8 -46 13 -48 13 -5 0 21 -4 37 -10 37 -5 0 -7 -14 -3 -32z"/>
<path d="M739 164 c-9 -11 -10 -20 -2 -32 11 -18 63 -29 63 -14 0 5 -11 7 -25
4 -15 -2 -25 0 -25 7 0 6 14 11 30 11 32 0 37 9 18 28 -17 17 -43 15 -59 -4z
m51 -4 c0 -5 -9 -10 -20 -10 -11 0 -20 5 -20 10 0 6 9 10 20 10 11 0 20 -4 20
-10z"/>
<path d="M832 145 c0 -22 2 -32 5 -22 2 9 13 17 23 17 10 0 21 -8 23 -17 3
-10 5 0 5 22 0 22 -2 32 -5 23 -2 -10 -13 -18 -23 -18 -10 0 -21 8 -23 18 -3
9 -5 -1 -5 -23z"/>
<path d="M921 145 l0 -40 24 29 23 29 5 -29 c3 -25 4 -24 6 9 1 42 -8 47 -28
15 l-15 -23 -7 25 c-6 21 -7 18 -8 -15z"/>
<path d="M1140 145 c0 -30 3 -35 23 -35 31 0 34 4 29 40 -3 24 -9 30 -28 30
-21 0 -24 -5 -24 -35z m40 15 c0 -5 -7 -10 -15 -10 -8 0 -15 5 -15 10 0 6 7
10 15 10 8 0 15 -4 15 -10z m0 -30 c0 -5 -7 -10 -15 -10 -8 0 -15 5 -15 10 0
6 7 10 15 10 8 0 15 -4 15 -10z"/>
<path d="M1321 125 c1 -27 4 -40 6 -29 3 17 9 20 25 16 28 -7 51 23 37 50 -7
12 -19 18 -39 16 -29 -2 -30 -4 -29 -53z m57 22 c4 -20 -25 -34 -40 -19 -15
15 -1 44 19 40 10 -2 19 -11 21 -21z"/>
<path d="M1420 165 c-20 -24 0 -50 36 -50 26 0 29 4 29 30 0 25 -4 31 -26 33
-15 2 -31 -4 -39 -13z m58 -18 c4 -20 -25 -34 -40 -19 -15 15 -1 44 19 40 10
-2 19 -11 21 -21z"/>
<path d="M1514 166 c-15 -40 30 -76 59 -47 7 7 1 10 -19 8 -23 -2 -29 2 -29
18 0 16 6 20 28 18 15 -1 25 2 22 8 -9 14 -55 11 -61 -5z"/>
<path d="M1601 148 c-1 -43 8 -48 28 -15 l15 22 7 -25 c6 -21 7 -18 8 15 l0
40 -24 -29 -23 -29 -5 29 c-3 25 -4 24 -6 -8z"/>
<path d="M1692 145 c0 -22 2 -32 5 -22 2 9 13 17 23 17 10 0 21 -8 23 -17 3
-10 5 0 5 22 0 22 -2 32 -5 23 -2 -10 -13 -18 -23 -18 -10 0 -21 8 -23 18 -3
9 -5 -1 -5 -23z"/>
<path d="M1781 146 c-1 -38 -1 -39 19 -21 11 10 20 23 20 29 0 6 -7 3 -15 -7
-13 -18 -14 -17 -18 10 -3 23 -4 21 -6 -11z"/>
<path d="M1827 148 c8 -46 13 -48 13 -5 0 21 -4 37 -10 37 -5 0 -7 -14 -3 -32z"/>
<path d="M1871 146 c-1 -38 -1 -39 19 -21 11 10 20 23 20 29 0 6 -7 3 -15 -7
-13 -18 -14 -17 -18 10 -3 23 -4 21 -6 -11z"/>
<path d="M1917 148 c8 -46 13 -48 13 -5 0 21 -4 37 -10 37 -5 0 -7 -14 -3 -32z"/>
<path d="M2104 166 c-12 -31 0 -51 30 -51 36 0 56 26 37 49 -17 20 -60 21 -67
2z m54 -19 c4 -20 -25 -34 -40 -19 -15 15 -1 44 19 40 10 -2 19 -11 21 -21z"/>
<path d="M2198 145 c-2 -22 0 -34 6 -32 6 2 12 16 14 30 4 37 22 34 22 -3 0
-16 5 -30 10 -30 6 0 10 16 10 35 0 32 -3 35 -29 35 -26 0 -29 -4 -33 -35z"/>
<path d="M2284 166 c-12 -31 0 -51 30 -51 36 0 56 26 37 49 -17 20 -60 21 -67
2z m54 -19 c4 -20 -25 -34 -40 -19 -15 15 -1 44 19 40 10 -2 19 -11 21 -21z"/>
<path d="M2382 148 c-2 -36 0 -38 27 -38 16 0 32 -6 35 -12 4 -7 4 -2 1 12 -2
14 -5 35 -5 48 0 12 -4 22 -8 22 -5 0 -7 -13 -4 -30 4 -25 1 -30 -16 -30 -16
0 -22 8 -25 33 -4 31 -4 31 -5 -5z"/>
<path d="M2471 145 c0 -27 3 -34 8 -22 6 17 8 17 20 3 7 -9 18 -16 24 -16 5 0
2 9 -9 21 -18 20 -18 21 1 35 10 8 14 14 8 14 -6 0 -17 -7 -24 -16 -12 -14
-14 -14 -20 3 -5 12 -8 5 -8 -22z"/>
<path d="M2544 166 c-12 -31 0 -51 30 -51 36 0 56 26 37 49 -17 20 -60 21 -67
2z m54 -19 c4 -20 -25 -34 -40 -19 -15 15 -1 44 19 40 10 -2 19 -11 21 -21z"/>
<path d="M2641 148 c-1 -44 4 -46 30 -15 l18 22 1 -22 c0 -13 4 -23 8 -23 4 0
6 17 4 37 l-5 37 -23 -29 -22 -28 -5 29 c-3 25 -4 24 -6 -8z"/>
</g>
</svg>
