<svg width="653" height="792" viewBox="0 0 653 792" fill="none" xmlns="http://www.w3.org/2000/svg">
<path d="M153.69 446.858C169.886 461.785 183.686 479.424 201.544 492.317C219.401 505.211 243.219 512.887 263.602 504.543C281.35 497.282 292.767 479.348 297.535 460.757C310.657 409.906 274.57 351.848 223.174 341.011C203.206 336.801 181.619 338.747 163.292 329.834C139.988 318.516 126.636 291.877 102.731 281.903C79.3187 272.127 52.1223 281.116 30.7217 294.753C13.225 305.896 -2.64226 320.616 -11.2156 339.491C-17.0989 352.439 -19.0782 368.306 -11.7624 380.5C-1.78929 397.122 20.672 400.61 40.0387 399.911C86.4048 398.215 119.135 415.013 153.69 446.858Z" stroke="#1B8FFB" stroke-opacity="0.4" stroke-width="3" stroke-miterlimit="10"/>
<path d="M17.0288 289.613C-1.13494 301.128 -17.385 316.646 -26.0349 336.297C-31.9619 349.77 -33.8209 366.097 -26.4832 378.892C-16.2039 396.848 6.67294 402.13 26.9691 402.852C39.684 403.248 52.3319 404.859 64.74 407.664C70.6451 409.02 76.3971 410.642 81.9961 412.53C106.174 420.612 126.678 435.419 148.046 455.453C155.296 462.244 162.36 469.483 169.523 476.362C179.365 485.876 190.869 495.477 201.695 500.42C203.412 501.208 205.063 501.93 206.736 502.608C209.153 503.57 211.613 504.423 214.271 505.287C222.072 507.874 229.999 510.064 238.022 511.848C251.998 514.768 266.826 514.331 279.238 507.583C296.997 497.949 307.386 478.702 310.666 458.985C312.854 445.581 312.179 431.866 308.687 418.742C305.111 405.159 298.692 392.321 290.611 380.259C275.214 357.294 253.212 338.277 226.737 331.234C206.266 325.766 183.816 326.466 164.405 317.094C139.658 305.174 124.447 278.633 98.9459 271.164C89.0385 268.244 78.7701 268.922 68.2283 270.661C50.6114 273.581 32.4258 279.902 17.0288 289.613Z" stroke="#1B8FFB" stroke-opacity="0.4" stroke-width="3" stroke-miterlimit="10"/>
<path d="M3.32909 284.484C-15.5345 296.339 -32.1454 312.677 -40.85 333.105C-46.8207 347.113 -48.5813 363.9 -41.2218 377.296C-30.6254 396.586 -7.32201 403.662 13.9036 405.805C27.311 407.129 40.6062 409.413 53.6866 412.64C59.9781 414.2 66.1202 415.968 72.1128 417.944C98.4234 426.463 119.835 442.615 142.471 464.038C150.793 471.944 159.159 480.343 167.623 488.096C179.127 498.584 193.868 509.323 206.367 511.98C208.335 512.396 210.161 512.713 211.999 512.953C214.634 513.281 217.28 513.489 220.255 513.806C228.183 514.626 238.058 516.617 247.812 518.181C263.996 520.685 281.34 519.646 294.933 510.657C312.746 498.879 322.063 478.123 323.868 457.247C325.027 443.062 323.255 428.79 318.663 415.319C313.938 401.322 306.207 388.417 297.306 375.71C280.345 351.487 257.938 330.294 230.261 321.502C209.232 314.798 185.907 314.219 165.326 304.376C139.136 291.855 121.88 265.544 94.9678 260.404C83.8902 258.293 72.7799 260.623 61.068 263.214C41.5921 267.6 20.7601 273.516 3.32909 284.484Z" stroke="#1B8FFB" stroke-opacity="0.4" stroke-width="3" stroke-miterlimit="10"/>
<path d="M-10.3865 279.344C-29.928 291.581 -46.8998 308.75 -55.6809 329.922C-61.6954 344.455 -63.3357 361.712 -55.9652 375.699C-45.0298 396.334 -21.3656 405.225 0.833287 408.768C14.9093 411.013 28.8625 413.969 42.6393 417.626C49.2881 419.39 55.8129 421.297 62.2137 423.345C90.6458 432.302 112.987 449.821 136.771 472.655C146.176 481.688 155.821 491.245 165.619 499.83C178.741 511.312 196.796 523.2 210.935 523.506C213.005 523.55 215.076 523.47 217.136 523.265C220.001 522.981 222.833 522.543 226.125 522.314C234.873 521.669 246.322 523.156 257.498 524.435C275.881 526.535 295.772 524.971 310.513 513.642C328.447 499.895 336.649 477.488 336.955 455.42C337.105 440.469 334.257 425.64 328.578 411.808C322.684 397.406 313.652 384.469 303.93 371.062C285.405 345.593 262.583 322.234 233.714 311.681C212.237 303.829 188.037 301.937 166.33 291.636C138.696 278.513 119.307 252.584 91.0723 249.643C78.7918 248.363 66.8941 252.322 54.0669 255.767C32.5569 261.628 9.11138 267.194 -10.3865 279.344Z" stroke="#1B8FFB" stroke-opacity="0.4" stroke-width="3" stroke-miterlimit="10"/>
<path d="M-24.0857 274.216C-44.3162 286.813 -61.6597 304.759 -70.4955 326.707C-76.5647 341.776 -78.1503 359.514 -70.6924 374.091C-59.5054 396.072 -35.3819 406.658 -12.2317 411.699C2.7389 414.98 17.3923 418.567 31.5974 422.58C38.618 424.563 45.5437 426.612 52.3747 428.726C82.9939 438.12 106.166 457.017 131.175 481.218C141.662 491.377 152.576 502.116 163.719 511.521C178.515 523.998 199.806 537.045 215.608 534.989C217.899 534.683 220.162 534.197 222.377 533.534C225.471 532.626 228.49 531.544 232.087 530.767C241.721 528.668 254.691 529.674 267.277 530.691C287.869 532.397 310.297 530.374 326.197 516.638C344.296 501.011 351.349 476.854 350.135 453.605C349.286 437.893 345.363 422.5 338.587 408.298C331.545 393.491 321.2 380.445 310.647 366.415C290.57 339.71 267.332 314.207 237.271 301.894C215.29 292.872 190.248 289.657 167.393 278.929C138.316 265.215 116.741 239.79 87.2259 238.915C73.7207 238.521 61.0465 244.022 47.0711 248.342C23.5053 255.603 -2.53196 260.797 -24.0857 274.216Z" stroke="#1B8FFB" stroke-opacity="0.4" stroke-width="3" stroke-miterlimit="10"/>
<path d="M-37.7895 269.087C-58.7089 282.056 -76.4134 300.8 -85.3257 323.547C-91.4277 339.141 -92.893 357.349 -85.4351 372.517C-73.9529 395.853 -49.4139 408.189 -25.2904 414.674C-9.79488 418.851 5.58029 423.138 20.5618 427.578C27.9541 429.765 35.2444 431.952 42.4326 434.139C75.1623 443.982 99.2967 464.256 125.542 489.857C137.111 501.132 149.304 513.052 161.782 523.276C178.185 536.76 202.768 550.977 220.231 546.548C222.762 545.889 225.226 544.996 227.591 543.879C230.977 542.154 234.46 540.628 238.023 539.308C248.499 535.743 263.033 536.213 277.03 537.023C299.819 538.335 324.84 535.929 341.833 519.711C360.15 502.214 365.989 476.286 363.288 451.91C361.428 435.44 356.432 419.478 348.569 404.886C340.357 389.686 328.711 376.563 317.338 361.887C295.697 333.935 272.043 306.312 240.79 292.15C218.307 281.969 192.346 277.42 168.409 266.189C137.833 251.885 114.038 227.05 83.2873 228.154C68.5464 228.679 55.1068 235.711 39.994 240.883C14.5255 249.621 -14.18 254.433 -37.7895 269.087Z" stroke="#1B8FFB" stroke-opacity="0.4" stroke-width="3" stroke-miterlimit="10"/>
<path d="M-51.5018 263.914C-73.0883 277.267 -91.1755 296.798 -100.153 320.331C-106.299 336.451 -107.666 355.129 -100.153 370.887C-88.3979 395.58 -63.4214 409.643 -38.3575 417.605C-22.3371 422.69 -6.25111 427.665 9.51775 432.532C17.2819 434.916 24.9695 437.267 32.5586 439.531C67.4207 449.799 92.3972 471.452 119.867 498.43C132.497 510.843 145.97 523.933 159.792 534.989C177.879 549.467 205.721 564.854 224.814 558.052C227.584 557.035 230.241 555.734 232.742 554.17C236.314 551.789 240.045 549.656 243.907 547.783C255.225 542.764 271.311 542.731 286.719 543.3C311.718 544.207 339.373 541.408 357.428 522.719C376.018 503.494 380.611 475.695 376.39 450.073C373.528 432.858 367.456 416.335 358.488 401.365C349.15 385.782 336.158 372.593 323.998 357.261C300.793 328.074 276.713 298.34 244.29 282.363C221.326 271.022 194.457 265.128 169.404 253.438C137.429 238.532 111.447 214.419 79.4278 217.404C63.4512 218.892 49.268 227.454 32.9961 233.447C5.46071 243.694 -25.8255 248.079 -51.5018 263.914Z" stroke="#1B8FFB" stroke-opacity="0.4" stroke-width="3" stroke-miterlimit="10"/>
<path d="M-65.2046 258.818C-87.48 272.553 -105.939 292.872 -114.972 317.171C-121.172 333.826 -122.451 352.985 -114.906 369.323C-102.877 395.372 -77.4522 411.163 -51.4806 420.59C-34.9354 426.583 -18.1277 432.247 -1.58238 437.54C6.55357 440.132 14.6349 442.625 22.6068 444.966C59.6122 455.672 85.4744 478.724 114.169 507.07C127.882 520.608 142.601 534.857 157.79 546.755C177.474 562.229 208.596 578.797 229.373 569.611C232.392 568.231 235.249 566.522 237.892 564.515C241.643 561.748 245.219 558.73 249.768 556.324C261.939 549.839 279.578 549.303 296.408 549.631C323.604 550.145 353.939 547.007 373.01 525.792C391.874 504.817 395.209 475.116 389.413 448.334C385.549 430.382 378.41 413.295 368.352 397.931C357.897 381.91 343.681 368.645 330.646 352.657C305.878 322.223 281.371 290.4 247.767 272.586C224.245 260.119 196.556 252.902 170.377 240.708C136.969 225.202 108.756 201.854 75.5013 206.655C58.289 209.137 43.3512 219.165 25.9202 226.011C-3.5726 237.668 -37.4724 241.725 -65.2046 258.818Z" stroke="#1B8FFB" stroke-opacity="0.4" stroke-width="3" stroke-miterlimit="10"/>
<path d="M-78.906 253.689C-101.87 267.796 -120.69 288.902 -129.799 313.989C-136.033 331.169 -137.235 350.809 -129.635 367.727C-117.333 395.143 -91.4707 412.651 -64.5149 423.499C-47.4338 430.399 -29.9153 436.753 -12.5827 442.472C-4.07494 445.272 4.3745 447.889 12.7656 450.324C51.9034 461.522 78.6405 485.909 108.571 515.665C123.355 530.341 139.387 545.76 155.888 558.489C177.256 574.969 211.659 592.707 234.044 581.137C237.307 579.393 240.356 577.275 243.131 574.827C247.111 571.437 250.873 567.774 255.74 564.821C268.753 556.882 287.911 555.898 306.195 555.898C335.579 556.04 368.626 552.617 388.692 528.799C407.862 506.096 409.918 474.503 402.657 446.54C397.788 427.851 389.578 410.197 378.424 394.432C366.734 378.028 351.173 364.687 337.329 348.032C310.996 316.405 286.052 282.505 251.278 262.82C227.22 249.227 198.679 240.599 171.395 227.99C136.533 211.882 106.143 189.343 71.609 195.916C53.1719 199.393 37.4906 210.876 18.9004 218.564C-12.6046 231.741 -49.1179 235.372 -78.906 253.689Z" stroke="#1B8FFB" stroke-opacity="0.4" stroke-width="3" stroke-miterlimit="10"/>
<path d="M-92.64 248.604C-116.271 263.094 -135.474 284.998 -144.638 310.861C-150.926 328.566 -152.041 348.688 -144.397 366.185C-131.822 394.968 -105.5 414.193 -77.6038 426.55C-59.9868 434.358 -41.7575 441.401 -23.6594 447.558C-14.7726 450.568 -5.93675 453.328 2.84802 455.836C44.1292 467.417 71.7411 493.236 102.907 524.326C118.763 540.139 136.085 556.718 153.921 570.256C176.885 587.753 214.568 606.661 238.648 592.696C242.154 590.581 245.396 588.055 248.304 585.173C252.514 581.17 256.462 576.85 261.645 573.362C275.501 563.957 296.256 562.426 315.907 562.251C347.499 562 383.28 558.216 404.309 531.894C423.839 507.431 424.605 473.88 415.857 444.791C409.993 425.368 400.709 407.147 388.441 390.987C375.603 374.157 358.73 360.761 344.055 343.46C316.169 310.544 290.777 274.565 254.844 253.033C230.283 238.324 200.866 228.318 172.467 215.25C136.162 198.54 103.574 176.855 67.7715 185.155C48.0878 189.715 31.63 202.587 11.9135 211.127C-21.6364 225.759 -60.7523 229.018 -92.64 248.604Z" stroke="#1B8FFB" stroke-opacity="0.4" stroke-width="3" stroke-miterlimit="10"/>
<path d="M-106.322 243.42C-130.631 258.293 -150.206 280.974 -159.446 307.613C-165.778 325.854 -166.806 346.457 -159.107 364.533C-146.269 394.672 -119.499 415.614 -90.6514 429.459C-72.4361 438.162 -53.7516 445.847 -34.684 452.478C-25.4326 455.693 -16.1813 458.613 -7.01741 461.227C36.3962 473.256 64.8829 500.464 97.2955 532.921C114.213 549.861 132.792 567.653 151.972 582.001C176.577 600.526 217.585 620.582 243.261 604.233C247.018 601.742 250.458 598.804 253.508 595.485C257.937 590.859 262.07 585.905 267.56 581.859C282.268 571.011 304.576 568.955 325.649 568.55C359.439 567.905 397.975 563.826 419.945 534.923C439.814 508.775 439.246 473.366 428.923 443.063C422.078 422.886 411.731 404.073 398.358 387.487C384.35 370.253 366.175 356.78 350.68 338.823C321.231 304.66 295.39 266.648 258.297 243.223C233.233 227.432 202.942 216.059 173.417 202.521C135.668 185.177 100.915 164.399 63.8222 174.416C42.9683 180.037 25.6904 194.297 4.77096 203.691C-30.6707 219.788 -72.4002 222.675 -106.322 243.42Z" stroke="#1B8FFB" stroke-opacity="0.4" stroke-width="3" stroke-miterlimit="10"/>
<path d="M-119.977 238.291C-144.965 253.536 -164.922 277.015 -174.228 304.431C-180.592 323.196 -181.555 344.291 -173.801 362.937C-160.679 394.453 -133.461 417.09 -103.673 432.411C-84.9272 442.029 -65.5656 450.395 -45.7149 457.454C-36.0917 460.877 -26.4576 463.939 -16.9001 466.585C28.6569 479.052 58.0184 507.66 91.6667 541.473C109.655 559.561 129.514 578.512 150.062 593.691C176.307 613.222 220.562 634.449 247.923 615.716C251.918 612.854 255.55 609.515 258.738 605.775C263.396 600.515 267.716 594.916 273.523 590.334C289.073 578.02 312.89 575.505 335.417 574.816C371.427 573.854 412.741 569.414 435.607 537.93C455.859 510.066 453.946 472.731 442.092 441.236C434.245 420.36 422.822 401.009 408.334 384.054C393.178 366.414 373.691 352.865 357.375 334.252C326.351 298.853 300.074 258.796 261.822 233.491C236.2 216.551 205.089 203.789 174.448 189.748C135.244 171.835 98.3919 151.921 59.943 163.622C37.8973 170.326 19.8101 185.964 -2.20286 196.211C-39.7004 213.806 -84.0325 216.321 -119.977 238.291Z" stroke="#1B8FFB" stroke-opacity="0.4" stroke-width="3" stroke-miterlimit="10"/>
<path d="M-133.736 233.163C-159.401 248.79 -179.664 273.056 -189.091 301.238C-195.51 320.539 -196.396 342.115 -188.577 361.384C-175.225 394.268 -147.514 418.6 -116.786 435.408C-97.4891 445.927 -77.4279 454.978 -56.7723 462.485C-46.7773 466.104 -36.7495 469.319 -26.7983 472.042C20.891 484.936 51.1274 514.943 86.0114 550.123C105.072 569.338 126.21 589.492 148.103 605.469C175.988 625.996 223.557 648.403 252.525 627.341C256.782 624.068 260.61 620.272 263.92 616.044C268.808 610.172 273.313 603.916 279.437 598.787C295.84 585.019 321.254 582.001 345.148 581.072C383.356 579.716 427.47 574.991 451.221 540.927C471.856 511.334 468.598 472.032 455.213 439.421C446.377 417.816 433.885 397.895 418.284 380.532C401.957 362.499 381.169 348.884 364.033 329.605C331.446 292.97 304.698 250.868 265.308 223.67C239.14 205.627 207.187 191.476 175.43 177.008C134.816 158.559 95.8314 139.553 56.0812 152.916C32.8434 160.714 13.958 177.719 -9.20323 188.807C-48.7347 207.836 -95.6804 209.979 -133.736 233.163Z" stroke="#1B8FFB" stroke-opacity="0.4" stroke-width="3" stroke-miterlimit="10"/>
<path d="M-147.439 228.023C-173.783 244.044 -194.461 269.087 -203.921 298.012C-210.372 317.838 -211.193 339.895 -203.319 359.7C-189.705 394.049 -161.535 420.032 -129.822 438.328C-109.994 449.743 -89.242 459.473 -67.7856 467.417C-57.4189 471.244 -47.0084 474.601 -36.6635 477.401C13.1692 490.732 44.2586 522.139 80.3455 558.675C100.478 579.038 122.906 600.318 146.133 617.149C175.659 638.692 226.486 662.28 257.127 638.768C261.639 635.166 265.681 631.011 269.156 626.4C274.263 619.904 278.998 613.004 285.384 607.339C302.63 592.106 329.607 588.584 354.923 587.414C395.384 585.665 442.264 580.667 466.901 544C487.93 512.702 483.304 471.529 468.399 437.693C458.574 415.363 445.009 394.874 428.288 377.11C410.792 358.661 388.713 344.98 370.757 325.056C336.606 287.174 309.388 242.983 268.872 213.938C242.157 194.789 209.361 179.25 176.49 164.322C134.399 145.229 93.3804 127.141 52.1758 142.167C27.768 151.079 8.06237 169.429 -16.258 181.371C-57.7688 201.854 -107.317 203.625 -147.439 228.023Z" stroke="#1B8FFB" stroke-opacity="0.4" stroke-width="3" stroke-miterlimit="10"/>
<path d="M-161.138 222.894C-188.127 239.298 -209.254 265.128 -218.735 294.873C-225.242 315.225 -225.985 337.774 -218.046 358.158C-204.191 393.765 -175.529 421.498 -142.931 441.27C-122.571 453.58 -101.124 463.994 -78.8601 472.382C-68.1215 476.428 -57.3173 479.917 -46.5788 482.793C5.38631 496.561 37.3615 529.368 74.7387 567.271C95.9206 588.76 119.639 611.211 144.211 628.872C175.388 651.41 229.508 676.18 261.767 650.284C266.508 646.304 270.726 641.741 274.321 636.702C279.657 629.583 284.535 622.048 291.282 615.837C309.38 599.138 337.91 595.059 364.626 593.703C407.274 591.516 457.008 586.288 482.509 547.029C503.943 514.014 497.972 470.916 481.503 435.911C470.703 412.838 456.073 391.762 438.232 373.578C419.587 354.79 396.174 341.033 377.398 320.452C341.694 281.324 313.973 235.153 272.353 204.161C245.091 183.919 211.464 166.98 177.466 151.593C133.932 131.909 90.7919 114.751 48.2531 131.417C22.6861 141.434 2.13852 161.118 -23.3191 173.935C-66.7983 195.883 -118.884 197.359 -161.138 222.894Z" stroke="#1B8FFB" stroke-opacity="0.4" stroke-width="3" stroke-miterlimit="10"/>
<path d="M-174.853 217.766C-202.52 234.596 -223.997 261.169 -233.566 291.68C-240.127 312.556 -240.783 335.598 -232.789 356.562C-218.683 393.546 -189.54 422.974 -156.001 444.233C-135.118 457.436 -112.978 468.539 -89.9072 477.379C-78.9637 481.578 -67.8048 485.192 -56.4777 488.206C-2.36927 502.422 30.4698 536.618 69.0936 575.888C91.3472 598.514 116.356 622.125 142.262 640.617C175.069 664.161 232.48 690.101 266.39 661.821C271.375 657.466 275.784 652.494 279.513 647.025C285.079 639.294 290.142 631.103 297.206 624.345C316.146 606.191 346.23 601.664 374.367 600.013C419.202 597.476 471.79 591.942 498.144 550.069C520.015 515.337 512.645 470.326 494.645 434.151C482.855 410.373 467.156 388.744 448.202 370.166C428.398 350.919 403.684 337.085 384.077 315.848C346.809 275.484 318.64 227.269 275.817 194.385C248.008 173.049 213.485 154.71 178.437 138.864C133.503 118.568 88.2853 102.361 44.3577 120.656C17.6316 131.8 -3.75809 152.829 -30.353 166.477C-75.8334 189.901 -130.554 191.017 -174.853 217.766Z" stroke="#1B8FFB" stroke-opacity="0.4" stroke-width="3" stroke-miterlimit="10"/>
<path d="M-188.555 212.625C-216.9 229.838 -238.749 257.199 -248.383 288.497C-254.944 309.899 -255.589 333.432 -247.53 354.965C-233.172 393.316 -203.537 424.439 -169.068 447.186C-147.67 461.277 -124.841 473.066 -100.963 482.355C-89.6612 486.756 -78.1206 490.517 -66.3959 493.619C-10.1441 508.262 23.5588 543.857 63.4184 584.484C86.7436 608.258 113.032 633.027 140.283 652.351C174.741 676.89 235.487 704.077 270.983 673.336C276.214 668.609 280.819 663.233 284.685 657.337C290.47 648.982 295.719 640.146 303.09 632.852C322.883 613.234 354.486 608.203 384.066 606.311C431.089 603.38 486.564 597.563 513.738 553.109C536.025 516.66 527.298 469.713 507.757 432.379C494.995 407.882 478.234 385.688 458.165 366.71C437.202 347.025 411.142 333.148 390.759 311.266C351.927 269.655 323.276 219.406 279.371 184.63C251.015 162.212 215.738 142.451 179.487 126.124C133.066 105.237 85.7922 89.9705 40.465 109.928C12.5906 122.198 -9.63017 144.562 -37.3952 159.051C-84.8658 183.93 -142.189 184.663 -188.555 212.625Z" stroke="#1B8FFB" stroke-opacity="0.4" stroke-width="3" stroke-miterlimit="10"/>
<path d="M-202.267 207.497C-231.279 225.081 -253.51 253.241 -263.21 285.304C-269.848 307.241 -270.384 331.234 -262.259 353.368C-247.66 393.098 -217.544 425.905 -182.135 450.149C-160.222 465.126 -136.699 477.597 -112.006 487.331C-100.326 491.94 -88.382 495.847 -76.2364 499.032C-17.8413 514.112 16.649 551.184 57.8317 593.079C82.1739 618.034 109.808 643.919 138.393 664.074C174.48 689.62 238.517 717.976 275.654 684.852C281.33 679.832 285.769 673.916 289.936 667.639C295.95 658.661 301.385 649.179 309.073 641.338C329.708 620.276 362.908 614.732 393.866 612.599C443.075 609.319 501.427 603.205 529.465 556.127C552.178 517.962 542.062 469.101 520.979 430.585C507.232 405.365 489.395 382.601 468.194 363.221C446.071 343.154 418.755 329.189 397.496 306.64C357.101 263.783 327.958 211.499 282.937 174.832C254.013 151.276 217.85 130.181 180.505 113.406C132.63 91.9061 83.3112 77.5913 36.5733 99.1784C7.56163 112.586 -15.523 136.272 -44.4253 151.67C-93.8971 177.948 -153.878 178.32 -202.267 207.497Z" stroke="#1B8FFB" stroke-opacity="0.4" stroke-width="3" stroke-miterlimit="10"/>
<path d="M-215.972 202.368C-245.673 220.335 -268.276 249.271 -278.041 282.122C-284.723 304.584 -285.193 329.146 -276.948 351.772C-262.141 392.868 -231.522 427.37 -195.206 453.102C-172.771 468.963 -148.547 482.126 -123.032 492.318C-110.996 497.124 -98.6694 501.167 -86.1251 504.423C-25.5976 519.952 9.76755 558.413 52.1969 601.686C77.5999 627.778 106.513 654.833 136.4 675.819C174.181 702.36 241.467 731.886 280.255 696.389C286.171 691.009 290.786 684.611 295.105 677.962C301.349 668.372 306.97 658.278 314.975 649.857C336.452 627.33 371.205 621.283 403.552 618.909C454.948 615.202 516.186 608.86 545.023 559.179C568.162 519.285 556.669 468.5 534.088 428.825C519.357 402.884 500.447 379.551 478.12 359.766C454.839 339.294 426.221 325.253 404.131 302.047C362.183 257.954 332.548 203.626 286.412 165.066C256.886 140.439 220.001 117.911 181.53 100.677C132.222 78.5757 80.8586 65.2123 32.6991 88.4288C2.55016 102.973 -21.3875 127.983 -51.438 144.201C-102.933 171.978 -165.472 171.967 -215.972 202.368Z" stroke="#1B8FFB" stroke-opacity="0.4" stroke-width="3" stroke-miterlimit="10"/>
<path d="M-229.673 197.206C-260.133 215.672 -282.65 244.791 -292.858 278.918C-299.583 301.883 -299.988 326.893 -291.764 350.153C-276.684 392.627 -245.573 428.814 -208.305 456.033C-185.368 472.773 -160.455 486.624 -134.13 497.271C-121.734 502.283 -109.022 506.473 -96.0752 509.814C-33.4044 525.77 2.83552 565.587 46.5006 610.27C72.9752 637.5 103.179 665.714 134.443 687.531C173.811 715.067 244.421 745.774 284.838 707.893C291.006 702.141 295.773 695.339 300.279 688.209C306.731 677.995 312.548 667.223 320.859 658.289C343.189 634.307 379.495 627.767 413.285 625.142C466.869 621.042 531.016 614.436 560.651 562.142C584.228 520.586 571.411 467.778 547.178 426.987C531.481 400.331 511.496 376.444 488.029 356.288C463.588 335.423 433.658 321.294 410.748 297.443C367.236 252.114 337.109 195.741 289.868 155.278C259.829 129.558 222.069 105.63 182.482 87.9363C131.764 65.2447 78.3773 52.8546 28.7415 77.6786C-2.54469 93.3714 -27.3353 119.694 -58.5449 136.732C-111.964 165.995 -177.118 165.624 -229.673 197.206Z" stroke="#1B8FFB" stroke-opacity="0.4" stroke-width="3" stroke-miterlimit="10"/>
<path d="M-243.383 192.099C-274.5 210.984 -297.434 240.819 -307.683 275.746C-314.452 299.269 -314.791 324.749 -306.469 348.578C-291.16 392.43 -259.447 430.235 -221.337 459.029C-197.876 476.635 -172.267 491.18 -145.128 502.312C-132.37 507.529 -119.267 511.863 -105.914 515.282C-41.1108 531.686 -3.98514 572.913 40.9047 618.942C68.451 647.298 99.9559 676.672 132.543 699.319C173.562 727.873 247.442 759.739 289.51 719.485C295.918 713.372 300.883 706.143 305.52 698.641C312.201 687.793 318.194 676.376 326.833 666.928C350.005 641.48 387.874 634.438 423.064 631.573C478.835 627.078 545.891 620.21 576.324 565.313C600.382 521.975 586.166 467.307 560.348 425.336C543.681 397.93 522.623 373.45 498.016 352.876C472.416 331.595 441.152 317.411 417.455 292.904C372.379 246.329 341.749 187.922 293.403 145.568C260.41 116.879 223.395 93.1743 183.535 75.2071C131.341 51.914 75.9199 40.4534 24.8953 66.9397C-7.51726 83.7588 -33.1827 111.404 -65.5296 129.273C-120.994 160.025 -188.75 159.27 -243.383 192.099Z" stroke="#1B8FFB" stroke-opacity="0.4" stroke-width="3" stroke-miterlimit="10"/>
<path d="M-257.088 186.97C-288.869 206.273 -312.221 236.829 -322.503 272.564C-329.327 296.623 -329.6 322.573 -321.202 346.927C-305.652 392.146 -273.502 431.668 -234.419 461.916C-210.449 480.391 -184.144 495.617 -156.187 507.201C-143.068 512.617 -129.58 517.091 -115.824 520.586C-48.8774 537.427 -10.8441 580.044 35.2487 627.439C63.8667 656.965 96.6401 687.476 130.584 710.955C173.232 740.481 250.414 773.54 294.123 730.913C300.782 724.439 305.922 716.784 310.701 708.855C317.612 697.395 323.823 685.333 332.746 675.305C356.804 648.403 396.172 640.857 432.794 637.751C490.829 632.863 560.739 625.722 591.959 568.233C616.422 523.167 600.784 466.531 573.49 423.455C555.847 395.335 533.728 370.287 508.008 349.3C481.249 327.669 448.662 313.42 424.156 288.246C377.505 240.424 346.383 180.037 296.933 135.747C265.778 107.839 226.367 81.0688 184.55 62.4781C130.901 38.6382 73.4789 28.0743 20.9998 56.19C-12.5281 74.1574 -39.0574 103.159 -72.5635 121.859C-130.029 154.043 -200.398 152.927 -257.088 186.97Z" stroke="#1B8FFB" stroke-opacity="0.4" stroke-width="3" stroke-miterlimit="10"/>
<path d="M-270.792 181.83C-303.237 201.559 -327.011 232.839 -337.334 269.382C-344.191 293.954 -344.442 320.419 -335.945 345.385C-320.22 392.004 -287.513 433.199 -247.489 464.923C-223.023 484.283 -196.02 500.201 -167.234 512.231C-153.742 517.853 -139.852 522.469 -125.679 526.043C-56.6005 543.321 -17.7251 587.338 29.6033 636.1C59.282 666.72 93.3349 698.434 128.623 722.744C172.923 753.298 253.375 787.505 298.724 742.494C305.635 735.648 310.949 727.588 315.892 719.222C323.022 707.138 329.386 694.431 338.66 683.867C363.516 655.5 404.491 647.451 442.546 644.105C502.778 638.823 575.586 631.441 607.594 571.317C632.516 524.534 615.457 466.039 586.642 421.738C568.006 392.92 544.817 367.319 517.979 345.932C490.05 323.798 456.204 309.472 430.834 283.598C382.62 234.54 351.006 172.13 300.441 125.927C268.728 96.9254 228.486 68.7878 185.619 49.7049C130.439 25.2636 71.0266 15.673 17.1041 45.44C-17.5392 64.5556 -44.9543 94.8367 -79.6086 114.423C-139.064 148.072 -212.036 146.574 -270.792 181.83Z" stroke="#1B8FFB" stroke-opacity="0.4" stroke-width="3" stroke-miterlimit="10"/>
<path d="M-284.504 176.702C-317.604 196.854 -341.794 228.848 -352.161 266.189C-359.061 291.341 -359.225 318.243 -350.674 343.832C-334.697 391.775 -301.508 434.686 -260.555 467.876C-235.592 488.111 -207.896 504.719 -178.288 517.207C-164.452 523.017 -150.195 527.769 -135.64 531.424C-64.4177 549.129 -24.6566 594.534 23.9404 644.674C54.6908 676.388 90.034 709.304 126.646 734.445C172.575 765.995 256.329 801.372 303.329 753.987C310.481 746.781 315.971 738.295 321.066 729.502C328.426 716.795 334.976 703.443 344.556 692.321C370.265 662.499 412.804 653.947 452.237 650.361C514.678 644.685 590.395 637.041 623.19 574.314C648.56 525.792 630.079 465.394 599.734 419.923C580.137 390.362 555.882 364.171 527.91 342.367C498.832 319.883 463.686 305.481 437.474 278.995C387.707 228.69 355.513 164.323 303.92 116.151C271.606 86.0994 230.587 56.5292 186.539 36.9762C130.036 11.9334 68.6006 3.31604 13.2127 34.6906C-22.5461 54.9545 -50.8469 86.5478 -86.6385 106.987C-148.096 142.09 -223.681 140.22 -284.504 176.702Z" stroke="#1B8FFB" stroke-opacity="0.4" stroke-width="3" stroke-miterlimit="10"/>
<path d="M-189.332 522.194C-175.124 528.22 -160.466 533.124 -145.492 536.858C-72.137 555.012 -31.501 601.795 18.3317 653.302C50.1647 686.197 86.7764 720.24 124.733 746.256C172.324 778.811 259.348 815.358 307.978 765.59C326.065 747.087 333.774 720.633 350.517 700.916C377.068 669.64 421.159 660.574 462.058 656.736C526.697 650.677 605.312 642.771 638.905 577.43C664.724 527.191 644.821 464.88 612.955 418.228C592.375 387.958 567.052 361.202 537.96 338.988C507.713 316.088 471.254 301.62 444.233 274.467C392.891 222.894 360.205 156.46 307.464 106.44C232.425 35.2263 110.441 -34.7842 9.33184 23.9406C-27.5424 45.3637 -56.729 78.2583 -93.6688 99.5392C-157.094 136.108 -235.315 133.877 -298.161 171.573C-355.025 205.648 -386.563 277.824 -365.37 342.17C-339.212 421.793 -267.717 489.113 -189.332 522.194Z" stroke="#1B8FFB" stroke-opacity="0.4" stroke-width="3" stroke-miterlimit="10"/>
<ellipse cx="245.5" cy="423" rx="291.5" ry="291" fill="url(#paint0_radial_47_12379)"/>
<defs>
<radialGradient id="paint0_radial_47_12379" cx="0" cy="0" r="1" gradientUnits="userSpaceOnUse" gradientTransform="translate(245.5 423) rotate(90) scale(291 291.5)">
<stop stop-color="#09081F"/>
<stop offset="1" stop-color="#09081F" stop-opacity="0"/>
</radialGradient>
</defs>
</svg>
