<svg viewBox="0 0 115 23" fill="none" xmlns="http://www.w3.org/2000/svg">
<path d="M8.73883 0.428904C9.72385 -0.142968 10.9375 -0.142968 11.9225 0.428904L19.0695 4.57821C20.0545 5.15008 20.6613 6.20695 20.6613 7.35069V15.6493C20.6613 16.7931 20.0545 17.8499 19.0695 18.4218L11.9225 22.5711C10.9375 23.143 9.72385 23.143 8.73883 22.5711L1.59183 18.4218C0.606801 17.8499 0 16.7931 0 15.6493V7.35069C0 6.20695 0.606801 5.15008 1.59183 4.57821L8.73883 0.428904Z" fill="#3C79FF"/>
<path d="M10.2436 11.4143L4.53479 8.15843L10.2436 4.81689L16.1228 8.15843V14.7558L10.2436 18.183V11.4143Z" fill="white"/>
<path fill-rule="evenodd" clip-rule="evenodd" d="M54.2157 4.98438C53.9326 4.98438 53.7031 5.21529 53.7031 5.50014V18.7058C53.7031 18.9906 53.9326 19.2215 54.2157 19.2215H56.0769C56.3662 19.2215 56.5203 19.2499 56.6825 19.0103C56.7419 18.9226 56.8937 18.6425 56.9734 18.5727C57.1129 18.4506 57.3856 18.4137 57.5887 18.5593C57.6867 18.6297 57.7884 18.6954 57.8936 18.7566C58.6205 19.1793 59.4008 19.3906 60.4128 19.3906C61.4961 19.3906 62.3762 19.1511 63.2314 18.6721C64.1009 18.1789 64.785 17.4956 65.2839 16.6221C65.797 15.7485 66.0536 14.72 66.0536 13.5365C66.0536 12.339 65.797 11.3034 65.2839 10.4299C64.785 9.55634 64.1009 8.88005 63.2314 8.40102C62.3762 7.92199 61.4961 7.68247 60.4128 7.68247C59.4436 7.68247 58.6846 7.89381 57.9577 8.31648C57.5925 8.52881 57.0384 8.29137 57.0384 7.86698V5.50014C57.0384 5.21529 56.8089 4.98438 56.5258 4.98438H54.2157ZM61.2217 16.3051C60.7941 16.5587 60.3914 16.6855 59.8356 16.6855C59.2797 16.6855 58.7808 16.5587 58.339 16.3051C57.8971 16.0515 57.637 15.6922 57.3805 15.2272C57.1239 14.7482 56.9956 14.1846 56.9956 13.5365C56.9956 12.8743 57.1239 12.3108 57.3805 11.8458C57.637 11.3809 57.8971 11.0216 58.339 10.768C58.7808 10.5144 59.2797 10.3876 59.8356 10.3876C60.3914 10.3876 60.7941 10.5144 61.2217 10.768C61.6635 11.0216 62.0128 11.3809 62.2693 11.8458C62.5401 12.3108 62.6755 12.8743 62.6755 13.5365C62.6755 14.1846 62.5401 14.7482 62.2693 15.2272C62.0128 15.6922 61.6635 16.0515 61.2217 16.3051Z" fill="#161F32"/>
<path d="M68.6416 4.98438C68.3585 4.98438 68.129 5.21529 68.129 5.50014V15.3118C68.129 16.6643 68.5067 17.6858 69.2622 18.3762C70.0176 19.0525 71.0723 19.3906 72.4264 19.3906C72.9395 19.3906 73.4312 19.3343 73.9016 19.2215C74.2333 19.1347 74.5317 19.0215 74.7966 18.8819C75.0063 18.7714 75.0812 18.5157 74.9955 18.2937L74.4894 16.9834C74.3661 16.6644 73.9682 16.5551 73.6443 16.6595C73.4156 16.7332 73.1664 16.77 72.8967 16.77C72.4549 16.77 72.1057 16.6432 71.8491 16.3896C71.5926 16.1219 71.4643 15.7485 71.4643 15.2695V11.157C71.4643 10.8721 71.6938 10.6412 71.9769 10.6412H73.8166C74.0997 10.6412 74.3292 10.4103 74.3292 10.1254V8.62091C74.3292 8.33606 74.0997 8.10515 73.8166 8.10515H71.9769C71.6938 8.10515 71.4643 7.87423 71.4643 7.58938V5.50015C71.4643 5.2153 71.2348 4.98439 70.9517 4.98439L68.6416 4.98438Z" fill="#161F32"/>
<path d="M103.754 4.98438C103.47 4.98438 103.241 5.21529 103.241 5.50014V18.7058C103.241 18.9906 103.47 19.2215 103.754 19.2215H106.064C106.347 19.2215 106.576 18.9906 106.576 18.7058V13.5999C106.576 12.8955 106.69 12.3178 106.918 11.867C107.161 11.4161 107.488 11.085 107.902 10.8737C108.329 10.6483 108.807 10.5355 109.334 10.5355C110.075 10.5355 110.646 10.7539 111.045 11.1907C111.458 11.6275 111.665 12.3037 111.665 13.2195V18.7058C111.665 18.9906 111.894 19.2215 112.177 19.2215H114.487C114.77 19.2215 115 18.9906 115 18.7058V12.7123C115 11.557 114.793 10.613 114.38 9.88039C113.967 9.13366 113.396 8.58418 112.67 8.23195C111.957 7.86563 111.144 7.68247 110.232 7.68247C109.249 7.68247 108.372 7.88676 107.603 8.29535C107.588 8.30287 107.574 8.31045 107.56 8.31808C107.16 8.53574 106.576 8.27057 106.576 7.81283V5.50014C106.576 5.21529 106.347 4.98438 106.064 4.98438H103.754Z" fill="#161F32"/>
<path fill-rule="evenodd" clip-rule="evenodd" d="M46.1469 19.3906C44.8356 19.3906 43.6811 19.137 42.6833 18.6298C41.6999 18.1226 40.9373 17.4322 40.3957 16.5587C39.8541 15.6711 39.5833 14.6637 39.5833 13.5365C39.5833 12.3953 39.847 11.3879 40.3743 10.5144C40.9159 9.62678 41.65 8.93641 42.5765 8.44329C43.5029 7.93608 44.5505 7.68247 45.7193 7.68247C46.8453 7.68247 47.8573 7.92199 48.7552 8.40102C49.6674 8.86596 50.3872 9.54225 50.9146 10.4299C51.442 11.3034 51.7057 12.353 51.7057 13.5788C51.7057 13.7056 51.6985 13.8535 51.6843 14.0226C51.6611 14.2748 51.4501 14.4664 51.1984 14.4664H43.5783C43.2501 14.4664 43.0046 14.7754 43.1408 15.0758C43.1772 15.1563 43.2172 15.2349 43.2606 15.3118C43.5457 15.7767 43.9376 16.136 44.4365 16.3896C44.9496 16.6291 45.5483 16.7489 46.2324 16.7489C46.8453 16.7489 47.3798 16.6573 47.8359 16.4741C48.1513 16.3513 48.4475 16.1873 48.7245 15.9821C48.953 15.8128 49.2766 15.8191 49.4708 16.0274L50.5713 17.2069C50.7534 17.4021 50.7587 17.7073 50.563 17.8887C50.0973 18.3203 49.5446 18.666 48.9049 18.9257C48.1067 19.2356 47.1874 19.3906 46.1469 19.3906ZM43.2178 11.5922C43.1533 11.7086 43.0973 11.831 43.0499 11.9594C42.9403 12.2567 43.1852 12.5432 43.5003 12.5432H47.9682C48.2819 12.5432 48.5264 12.259 48.4193 11.9622C48.3701 11.8256 48.311 11.6952 48.2421 11.5711C47.9998 11.1343 47.6649 10.7962 47.2373 10.5567C46.8097 10.3031 46.3108 10.1763 45.7407 10.1763C45.1705 10.1763 44.6646 10.3031 44.2227 10.5567C43.7951 10.7962 43.4602 11.1414 43.2178 11.5922Z" fill="#161F32"/>
<path d="M31.143 19.2215C30.9379 19.2215 30.7524 19.0984 30.6718 18.9086L26.2783 8.5701C26.1337 8.22981 26.3818 7.85154 26.7496 7.85154H29.0723C29.2798 7.85154 29.4668 7.97737 29.546 8.17029L32.1299 14.4605C32.3032 14.8825 32.8958 14.8864 33.0747 14.4667L35.76 8.16407C35.8408 7.97447 36.0261 7.85154 36.2311 7.85154H38.3222C38.6903 7.85154 38.9384 8.23047 38.7931 8.57085L34.3802 18.9093C34.2993 19.0988 34.1141 19.2215 33.9092 19.2215H31.143Z" fill="#161F32"/>
<path fill-rule="evenodd" clip-rule="evenodd" d="M79.1883 18.6298C80.186 19.137 81.3405 19.3906 82.6518 19.3906C83.6923 19.3906 84.6116 19.2356 85.4098 18.9257C86.0495 18.666 86.6022 18.3203 87.0679 17.8887C87.2636 17.7073 87.2583 17.4021 87.0762 17.2069L85.9757 16.0274C85.7815 15.8191 85.4579 15.8128 85.2294 15.9821C84.9524 16.1873 84.6562 16.3513 84.3408 16.4741C83.8847 16.6573 83.3502 16.7489 82.7373 16.7489C82.0532 16.7489 81.4545 16.6291 80.9414 16.3896C80.4425 16.136 80.0506 15.7767 79.7655 15.3118C79.7221 15.2349 79.6821 15.1563 79.6456 15.0759C79.5095 14.7754 79.755 14.4664 80.0832 14.4664H87.7033C87.955 14.4664 88.166 14.2748 88.1892 14.0226C88.2034 13.8535 88.2106 13.7056 88.2106 13.5788C88.2106 12.353 87.9469 11.3034 87.4195 10.4299C86.8921 9.54225 86.1723 8.86596 85.2601 8.40102C84.3622 7.92199 83.3502 7.68247 82.2242 7.68247C81.0554 7.68247 80.0078 7.93608 79.0813 8.44329C78.1549 8.93641 77.4208 9.62678 76.8792 10.5144C76.3518 11.3879 76.0882 12.3953 76.0882 13.5365C76.0882 14.6637 76.359 15.6711 76.9006 16.5587C77.4422 17.4322 78.2048 18.1226 79.1883 18.6298ZM80.0052 12.5432C79.6901 12.5432 79.4452 12.2567 79.5548 11.9594C79.6022 11.831 79.6582 11.7086 79.7228 11.5922C79.9651 11.1414 80.3 10.7962 80.7276 10.5567C81.1694 10.3031 81.6754 10.1763 82.2456 10.1763C82.8157 10.1763 83.3146 10.3031 83.7422 10.5567C84.1698 10.7962 84.5047 11.1343 84.747 11.5711C84.8159 11.6952 84.875 11.8256 84.9242 11.9622C85.0313 12.259 84.7868 12.5432 84.4731 12.5432H80.0052Z" fill="#161F32"/>
<path d="M96.2715 19.3906C95.0315 19.3906 93.9269 19.144 92.9577 18.6509C91.9884 18.1437 91.2259 17.4463 90.67 16.5587C90.1284 15.6711 89.8576 14.6637 89.8576 13.5365C89.8576 12.3953 90.1284 11.3879 90.67 10.5144C91.2259 9.62678 91.9884 8.93641 92.9577 8.44329C93.9269 7.93608 95.0315 7.68247 96.2715 7.68247C97.483 7.68247 98.5378 7.93608 99.4358 8.44329C100.189 8.85676 100.776 9.42376 101.198 10.1443C101.337 10.3807 101.235 10.6782 100.994 10.8063L99.2784 11.7172C99.0328 11.8476 98.7324 11.754 98.5646 11.5314C98.3181 11.2044 98.0312 10.9499 97.704 10.768C97.2621 10.5144 96.7775 10.3876 96.2502 10.3876C95.68 10.3876 95.1669 10.5144 94.7108 10.768C94.2547 11.0216 93.8912 11.3809 93.6204 11.8458C93.3639 12.3108 93.2356 12.8743 93.2356 13.5365C93.2356 14.1987 93.3639 14.7623 93.6204 15.2272C93.8912 15.6922 94.2547 16.0515 94.7108 16.3051C95.1669 16.5587 95.68 16.6855 96.2502 16.6855C96.7775 16.6855 97.2621 16.5657 97.704 16.3262C98.0312 16.1443 98.318 15.8863 98.5645 15.5521C98.7321 15.3249 99.0368 15.2292 99.2846 15.3629L100.995 16.2853C101.236 16.4149 101.336 16.7129 101.196 16.9483C100.774 17.6589 100.187 18.2265 99.4358 18.6509C98.5378 19.144 97.483 19.3906 96.2715 19.3906Z" fill="#161F32"/>
</svg>
