
<svg viewBox="0 0 32 33" fill="none" xmlns="http://www.w3.org/2000/svg">
<path d="M14.66 4.09C15.58 3.30333 17.0866 3.30333 18.02 4.09L20.1267 5.90348C20.5267 6.25014 21.2733 6.5301 21.8066 6.5301H24.0733C25.4867 6.5301 26.6467 7.69001 26.6467 9.10335V11.3701C26.6467 11.8901 26.9267 12.6501 27.2733 13.0501L29.0867 15.1567C29.8733 16.0767 29.8733 17.5834 29.0867 18.5168L27.2733 20.6234C26.9267 21.0234 26.6467 21.77 26.6467 22.3034V24.5701C26.6467 25.9835 25.4867 27.1434 24.0733 27.1434H21.8066C21.2866 27.1434 20.5267 27.4233 20.1267 27.77L18.02 29.5833C17.1 30.37 15.5933 30.37 14.66 29.5833L12.5533 27.77C12.1533 27.4233 11.4067 27.1434 10.8733 27.1434H8.56665C7.15332 27.1434 5.99333 25.9835 5.99333 24.5701V22.29C5.99333 21.77 5.71334 21.0234 5.38001 20.6234L3.58 18.5034C2.80667 17.5834 2.80667 16.0901 3.58 15.1701L5.38001 13.0501C5.71334 12.6501 5.99333 11.9035 5.99333 11.3835V9.10335C5.99333 7.69001 7.15332 6.5301 8.56665 6.5301H10.8733C11.3933 6.5301 12.1533 6.25014 12.5533 5.90348L14.66 4.09Z" stroke="#266CF4" stroke-width="2" stroke-linecap="round" stroke-linejoin="round"/>
<path d="M13.1866 20.3095L15.1199 21.8028C15.3732 22.0561 15.9333 22.1762 16.3066 22.1762H18.6666C19.4133 22.1762 20.2266 21.6162 20.4132 20.8695L21.9066 16.3095C22.2132 15.4428 21.6533 14.6828 20.7199 14.6828H18.2266C17.8533 14.6828 17.5466 14.3762 17.5999 13.9362L17.9066 11.9362C18.0266 11.3762 17.6533 10.7495 17.0933 10.5629C16.5999 10.3762 15.9733 10.6295 15.7199 11.0028L13.1599 14.8028" stroke="#266CF4" stroke-width="2" stroke-miterlimit="10"/>
<path d="M10 20.3094V14.2028C10 13.3228 10.3733 13.0161 11.2533 13.0161H11.88C12.7467 13.0161 13.1333 13.3228 13.1333 14.2028V20.3094C13.1333 21.1761 12.76 21.4961 11.88 21.4961H11.2533C10.3733 21.4961 10 21.1894 10 20.3094Z" stroke="#266CF4" stroke-width="2" stroke-linecap="round" stroke-linejoin="round"/>
</svg>