<svg viewBox="0 0 24 24" fill="currentColor" xmlns="http://www.w3.org/2000/svg">
<path d="M12.0003 1.99976C14.7173 1.99976 15.0563 2.00976 16.1223 2.05976C17.1873 2.10976 17.9123 2.27676 18.5503 2.52476C19.2103 2.77876 19.7663 3.12276 20.3223 3.67776C20.8308 4.17765 21.2243 4.78234 21.4753 5.44976C21.7223 6.08676 21.8903 6.81276 21.9403 7.87776C21.9873 8.94376 22.0003 9.28276 22.0003 11.9998C22.0003 14.7168 21.9903 15.0558 21.9403 16.1218C21.8903 17.1868 21.7223 17.9118 21.4753 18.5498C21.225 19.2175 20.8314 19.8224 20.3223 20.3218C19.8223 20.8301 19.2176 21.2235 18.5503 21.4748C17.9133 21.7218 17.1873 21.8898 16.1223 21.9398C15.0563 21.9868 14.7173 21.9998 12.0003 21.9998C9.28331 21.9998 8.94431 21.9898 7.87831 21.9398C6.81331 21.8898 6.08831 21.7218 5.45031 21.4748C4.78263 21.2242 4.17783 20.8307 3.67831 20.3218C3.16971 19.8219 2.77624 19.2172 2.52531 18.5498C2.27731 17.9128 2.11031 17.1868 2.06031 16.1218C2.01331 15.0558 2.00031 14.7168 2.00031 11.9998C2.00031 9.28276 2.01031 8.94376 2.06031 7.87776C2.11031 6.81176 2.27731 6.08776 2.52531 5.44976C2.77554 4.78194 3.16911 4.17708 3.67831 3.67776C4.17798 3.16899 4.78273 2.77549 5.45031 2.52476C6.08831 2.27676 6.81231 2.10976 7.87831 2.05976C8.94431 2.01276 9.28331 1.99976 12.0003 1.99976ZM12.0003 6.99976C10.6742 6.99976 9.40245 7.52654 8.46477 8.46422C7.52709 9.4019 7.00031 10.6737 7.00031 11.9998C7.00031 13.3258 7.52709 14.5976 8.46477 15.5353C9.40245 16.473 10.6742 16.9998 12.0003 16.9998C13.3264 16.9998 14.5982 16.473 15.5358 15.5353C16.4735 14.5976 17.0003 13.3258 17.0003 11.9998C17.0003 10.6737 16.4735 9.4019 15.5358 8.46422C14.5982 7.52654 13.3264 6.99976 12.0003 6.99976ZM18.5003 6.74976C18.5003 6.41824 18.3686 6.10029 18.1342 5.86587C17.8998 5.63145 17.5818 5.49976 17.2503 5.49976C16.9188 5.49976 16.6008 5.63145 16.3664 5.86587C16.132 6.10029 16.0003 6.41824 16.0003 6.74976C16.0003 7.08128 16.132 7.39922 16.3664 7.63364C16.6008 7.86806 16.9188 7.99976 17.2503 7.99976C17.5818 7.99976 17.8998 7.86806 18.1342 7.63364C18.3686 7.39922 18.5003 7.08128 18.5003 6.74976ZM12.0003 8.99976C12.796 8.99976 13.559 9.31583 14.1216 9.87844C14.6842 10.441 15.0003 11.2041 15.0003 11.9998C15.0003 12.7954 14.6842 13.5585 14.1216 14.1211C13.559 14.6837 12.796 14.9998 12.0003 14.9998C11.2047 14.9998 10.4416 14.6837 9.87899 14.1211C9.31638 13.5585 9.00031 12.7954 9.00031 11.9998C9.00031 11.2041 9.31638 10.441 9.87899 9.87844C10.4416 9.31583 11.2047 8.99976 12.0003 8.99976Z" fill="currentColor"/>
</svg>
