<svg viewBox="0 0 24 25" fill="currentColor" xmlns="http://www.w3.org/2000/svg">
<g clip-path="url(#clip0_3201_5443)">
<path d="M6.98741 5.49978C6.98714 6.03021 6.77684 6.53882 6.40276 6.9137C6.02868 7.28859 5.52147 7.49904 4.99271 7.49878C4.46394 7.49851 3.95694 7.28755 3.58324 6.91229C3.20953 6.53703 2.99974 6.02821 3 5.49778C3.00026 4.96735 3.21057 4.45874 3.58465 4.08386C3.95873 3.70897 4.46594 3.49851 4.9947 3.49878C5.52346 3.49904 6.03047 3.71001 6.40417 4.08527C6.77788 4.46053 6.98767 4.96935 6.98741 5.49978ZM7.04722 8.97978H3.05981V21.4998H7.04722V8.97978ZM13.3473 8.97978H9.37985V21.4998H13.3075V14.9298C13.3075 11.2698 18.0624 10.9298 18.0624 14.9298V21.4998H22V13.5698C22 7.39978 14.9622 7.62978 13.3075 10.6598L13.3473 8.97978Z" fill="currentColor"/>
</g>
<defs>
<clipPath id="clip0_3201_5443">
<rect width="24" height="24" fill="currentColor" transform="translate(0 0.5)"/>
</clipPath>
</defs>
</svg>
