
<svg width="30" height="31" viewBox="0 0 30 31" fill="none" xmlns="http://www.w3.org/2000/svg">
<path d="M6.25 14.2152H21.075L16.5375 8.60999C16.3253 8.34745 16.2232 8.00898 16.2537 7.66903C16.2842 7.32909 16.4447 7.01551 16.7 6.7973C16.9553 6.57908 17.2844 6.4741 17.6149 6.50544C17.9454 6.53678 18.2503 6.70188 18.4625 6.96443L24.7125 14.678C24.7545 14.7394 24.7922 14.8038 24.825 14.8709C24.825 14.9351 24.825 14.9737 24.9125 15.038C24.9692 15.1854 24.9988 15.3423 25 15.5008C24.9988 15.6593 24.9692 15.8162 24.9125 15.9636C24.9125 16.0279 24.9125 16.0665 24.825 16.1307C24.7922 16.1978 24.7545 16.2622 24.7125 16.3236L18.4625 24.0372C18.345 24.1823 18.1978 24.299 18.0314 24.379C17.8651 24.459 17.6836 24.5003 17.5 24.5C17.2079 24.5006 16.9249 24.396 16.7 24.2043C16.5734 24.0964 16.4688 23.9638 16.3921 23.8143C16.3154 23.6647 16.2682 23.501 16.2531 23.3326C16.238 23.1643 16.2553 22.9945 16.3041 22.833C16.3529 22.6715 16.4322 22.5215 16.5375 22.3916L21.075 16.7864H6.25C5.91848 16.7864 5.60054 16.651 5.36612 16.4099C5.13169 16.1688 5 15.8418 5 15.5008C5 15.1598 5.13169 14.8328 5.36612 14.5917C5.60054 14.3507 5.91848 14.2152 6.25 14.2152Z" fill="currentColor"/>
</svg>
