<svg  viewBox="0 0 20 20" fill="currentColor" xmlns="http://www.w3.org/2000/svg">
    <path d="M13.0936 13.9775L6.02254 6.90639C5.78094 6.6648 5.78094 6.2641 6.02254 6.02251C6.26413 5.78091 6.66482 5.78091 6.90642 6.02251L13.9775 13.0936C14.2191 13.3352 14.2191 13.7359 13.9775 13.9775C13.7359 14.2191 13.3352 14.2191 13.0936 13.9775Z" />
    <path d="M6.02251 13.9775C5.78092 13.7359 5.78092 13.3352 6.02251 13.0936L13.0936 6.02251C13.3352 5.78091 13.7359 5.78091 13.9775 6.02251C14.2191 6.2641 14.2191 6.6648 13.9775 6.90639L6.9064 13.9775C6.6648 14.2191 6.26411 14.2191 6.02251 13.9775Z" />
</svg>
