<svg width="10" height="4" viewBox="0 0 10 4" fill="none" stroke='#A2A6B8'
     xmlns="http://www.w3.org/2000/svg">
    <path
            d="M1.625 2.575C1.30694 2.575 1.05 2.31806 1.05 2C1.05 1.68194 1.30694 1.425 1.625 1.425C1.94306 1.425 2.2 1.68194 2.2 2C2.2 2.31806 1.94306 2.575 1.625 2.575Z"
            stroke-width="1.1" />
    <path
            d="M5 2.575C4.68194 2.575 4.425 2.31806 4.425 2C4.425 1.68194 4.68194 1.425 5 1.425C5.31806 1.425 5.575 1.68194 5.575 2C5.575 2.31806 5.31806 2.575 5 2.575Z"
            stroke-width="1.1" />
    <path
            d="M8.375 2.575C8.05694 2.575 7.8 2.31806 7.8 2C7.8 1.68194 8.05694 1.425 8.375 1.425C8.69306 1.425 8.95 1.68194 8.95 2C8.95 2.31806 8.69306 2.575 8.375 2.575Z"
            stroke-width="1.1" />
</svg>
