<svg width="70" height="90" viewBox="0 0 70 90" fill="none" xmlns="http://www.w3.org/2000/svg">
<path d="M34.004 12.367C35.796 10.6612 37.5589 8.98299 37.5589 6.79017C37.5589 4.36532 36.7009 2.04121 35.0799 0.0186568L35.0908 0L35.0785 0.0168815L35.0649 0C35.0649 0 32.7628 3.14171 32.7628 5.0673C32.7628 6.25464 33.1249 7.09421 33.4248 7.78974C33.6369 8.28154 33.818 8.70132 33.818 9.12109C33.818 10.1346 33.3383 10.844 32.4751 10.844H32.3791C31.6118 10.7427 30.8444 10.1346 30.8444 8.10767C30.8444 8.10767 28.1586 12.6682 28.1586 15.7085C28.1586 18.7489 30.9403 21.5866 30.9403 21.5866C30.4607 20.5731 30.1729 19.4584 30.2689 18.3435C30.2689 15.9226 32.152 14.13 34.004 12.367Z" fill="#C2C7D1"/>
<path fill-rule="evenodd" clip-rule="evenodd" d="M51.0836 22.8028L46.2874 23.5122L44.465 23.8163C43.0261 24.0189 41.6833 24.8298 40.8199 26.1472L35.7361 33.8495L35.6402 33.9508L35.217 34.5769C35.1904 34.5589 35.1601 34.5589 35.1601 34.5589L34.778 34.2561L34.585 34.0522L29.5012 26.4512C29.3132 26.3188 29.1661 26.1431 29.0065 25.9525C28.9218 25.8513 28.8335 25.7459 28.7337 25.6405C28.7337 25.5391 28.6379 25.4378 28.446 25.3364C28.3981 25.2858 28.3501 25.2604 28.3022 25.2351C28.2542 25.2098 28.2062 25.1844 28.1582 25.1337C28.1582 25.0662 28.0729 24.9986 27.9876 24.931C27.945 24.8972 27.9024 24.8635 27.8705 24.8297C27.7745 24.779 27.7026 24.7284 27.6307 24.6777C27.5588 24.627 27.4868 24.5763 27.3909 24.5256C27.3269 24.4919 27.2736 24.4581 27.2203 24.4243C27.1137 24.3567 27.0071 24.2892 26.8153 24.2216C26.8153 24.2216 26.6235 24.1203 26.5276 24.1203C26.4373 24.0885 26.3659 24.0567 26.3016 24.028C26.1608 23.9653 26.0536 23.9176 25.8561 23.9176L19.5506 22.9232L19.525 22.9041L19.5362 22.921L19.4294 22.9041L19.6194 23.0458L34.5846 45.5043L34.6805 45.6056L35.1601 46.4164L35.5438 45.707L35.6397 45.6056L50.9869 22.9041L35.7356 34.2549L35.2561 34.6603C35.2561 34.6342 35.2497 34.6148 35.2403 34.6004L48.1097 24.9311L51.0836 22.8028ZM22.8826 25.3364H22.7862L23.0753 25.54L22.8826 25.3364Z" fill="#C2C7D1"/>
<path d="M8.99368 63.0959V58.8255H10.543V58.0457H6.54696V58.8255H8.0963V63.0959H8.99368Z" fill="#C2C7D1"/>
<path fill-rule="evenodd" clip-rule="evenodd" d="M13.4941 63.1867C15.0281 63.1867 16.1096 62.0813 16.1096 60.5745C16.1096 59.0678 15.0281 57.9624 13.4941 57.9624C11.9601 57.9624 10.8787 59.0678 10.8787 60.5745C10.8787 62.0813 11.9601 63.1867 13.4941 63.1867ZM13.4941 62.3993C12.4587 62.3993 11.799 61.6118 11.799 60.5745C11.799 59.5297 12.4587 58.7498 13.4941 58.7498C14.5219 58.7498 15.1892 59.5297 15.1892 60.5745C15.1892 61.6118 14.5219 62.3993 13.4941 62.3993Z" fill="#C2C7D1"/>
<path fill-rule="evenodd" clip-rule="evenodd" d="M17.8709 63.0959V61.2105H19.2209C20.287 61.2105 20.8929 60.4837 20.8929 59.6281C20.8929 58.7725 20.2947 58.0457 19.2209 58.0457H16.9736V63.0959H17.8709ZM19.0981 60.4307H17.8709V58.8255H19.0981C19.6044 58.8255 19.9725 59.1435 19.9725 59.6281C19.9725 60.1127 19.6044 60.4307 19.0981 60.4307Z" fill="#C2C7D1"/>
<path d="M25.3586 63.1867C26.7392 63.1867 27.3375 62.4674 27.3375 61.627C27.3375 60.5217 26.3146 60.2648 25.4682 60.0522C24.8709 59.9022 24.3615 59.7742 24.3615 59.3858C24.3615 59.0072 24.699 58.7574 25.2282 58.7574C25.7651 58.7574 26.3097 58.9391 26.7085 59.3328L27.2224 58.6741C26.7469 58.2198 26.1026 57.9699 25.3049 57.9699C24.1851 57.9699 23.4411 58.6135 23.4411 59.4464C23.4411 60.5081 24.4105 60.7506 25.2442 60.9591C25.8731 61.1164 26.4247 61.2545 26.4247 61.7103C26.4247 62.0434 26.1333 62.3993 25.397 62.3993C24.6837 62.3993 24.1314 62.0737 23.7786 61.7027L23.2801 62.3841C23.7326 62.8611 24.4152 63.1867 25.3586 63.1867Z" fill="#C2C7D1"/>
<path fill-rule="evenodd" clip-rule="evenodd" d="M30.5493 63.1867C32.0833 63.1867 33.1648 62.0813 33.1648 60.5745C33.1648 59.0678 32.0833 57.9624 30.5493 57.9624C29.0153 57.9624 27.9338 59.0678 27.9338 60.5745C27.9338 62.0813 29.0153 63.1867 30.5493 63.1867ZM30.5493 62.3993C29.5139 62.3993 28.8542 61.6118 28.8542 60.5745C28.8542 59.5297 29.5139 58.7498 30.5493 58.7498C31.5771 58.7498 32.2444 59.5297 32.2444 60.5745C32.2444 61.6118 31.5771 62.3993 30.5493 62.3993Z" fill="#C2C7D1"/>
<path d="M34.9261 63.0959V60.9153H37.4802V60.1354H34.9261V58.8255H37.5339V58.0457H34.0287V63.0959H34.9261Z" fill="#C2C7D1"/>
<path d="M40.4525 63.0959V58.8255H42.0018V58.0457H38.0058V58.8255H39.5551V63.0959H40.4525Z" fill="#C2C7D1"/>
<path d="M47.6328 63.0959L49.0901 58.0457H48.0853L47.0959 61.9374L46.0374 58.0457H45.3241L44.2656 61.9374L43.2686 58.0457H42.2638L43.7287 63.0959H44.6875L45.6769 59.3707L46.674 63.0959H47.6328Z" fill="#C2C7D1"/>
<path fill-rule="evenodd" clip-rule="evenodd" d="M53.9483 63.0959L51.9387 58.0457H50.8189L48.8094 63.0959H49.8295L50.2053 62.1267H52.5523L52.9282 63.0959H53.9483ZM52.2992 61.3468H50.4584L51.3788 58.9391L52.2992 61.3468Z" fill="#C2C7D1"/>
<path fill-rule="evenodd" clip-rule="evenodd" d="M58.4648 63.0959L57.2146 61.1121C57.8282 61.0137 58.4265 60.5291 58.4265 59.6281C58.4265 58.6968 57.7669 58.0457 56.7544 58.0457H54.5071V63.0959H55.4045V61.2105H56.2942L57.4294 63.0959H58.4648ZM56.6317 60.4307H55.4045V58.8255H56.6317C57.1379 58.8255 57.5061 59.1435 57.5061 59.6281C57.5061 60.1127 57.1379 60.4307 56.6317 60.4307Z" fill="#C2C7D1"/>
<path d="M62.8285 63.0959V62.316H60.2208V60.9153H62.7749V60.1354H60.2208V58.8255H62.8285V58.0457H59.3234V63.0959H62.8285Z" fill="#C2C7D1"/>
<path fill-rule="evenodd" clip-rule="evenodd" d="M9.96613 70.6674C11.5615 70.6674 12.6429 69.6301 12.6429 68.146C12.6429 66.662 11.5615 65.6172 9.96613 65.6172H8.06398V70.6674H9.96613ZM9.96613 69.8875H8.96136V66.397H9.96613C11.109 66.397 11.7226 67.1693 11.7226 68.146C11.7226 69.1001 11.0783 69.8875 9.96613 69.8875Z" fill="#C2C7D1"/>
<path d="M17.0145 70.6674V69.8875H14.4067V68.4868H16.9608V67.7069H14.4067V66.397H17.0145V65.6172H13.5093V70.6674H17.0145Z" fill="#C2C7D1"/>
<path d="M20.5285 70.6674L22.538 65.6172H21.5179L19.9686 69.7058L18.4192 65.6172H17.3991L19.4087 70.6674H20.5285Z" fill="#C2C7D1"/>
<path d="M26.602 70.6674V69.8875H23.9942V68.4868H26.5483V67.7069H23.9942V66.397H26.602V65.6172H23.0968V70.6674H26.602Z" fill="#C2C7D1"/>
<path d="M30.6758 70.6674V69.8875H28.4209V65.6172H27.5235V70.6674H30.6758Z" fill="#C2C7D1"/>
<path fill-rule="evenodd" clip-rule="evenodd" d="M33.639 70.7582C35.173 70.7582 36.2544 69.6528 36.2544 68.146C36.2544 66.6393 35.173 65.5339 33.639 65.5339C32.105 65.5339 31.0235 66.6393 31.0235 68.146C31.0235 69.6528 32.105 70.7582 33.639 70.7582ZM33.639 69.9708C32.6035 69.9708 31.9439 69.1833 31.9439 68.146C31.9439 67.1012 32.6035 66.3213 33.639 66.3213C34.6667 66.3213 35.334 67.1012 35.334 68.146C35.334 69.1833 34.6667 69.9708 33.639 69.9708Z" fill="#C2C7D1"/>
<path fill-rule="evenodd" clip-rule="evenodd" d="M38.0159 70.6674V68.7821H39.3658C40.4319 68.7821 41.0378 68.0552 41.0378 67.1996C41.0378 66.344 40.4396 65.6172 39.3658 65.6172H37.1185V70.6674H38.0159ZM39.243 68.0022H38.0159V66.397H39.243C39.7493 66.397 40.1174 66.715 40.1174 67.1996C40.1174 67.6842 39.7493 68.0022 39.243 68.0022Z" fill="#C2C7D1"/>
<path d="M47.1002 70.6674V65.6172H45.8346L44.4387 68.9411L43.0504 65.6172H41.7849V70.6674H42.6823V66.9195L44.2469 70.6674H44.6304L46.2028 66.9195V70.6674H47.1002Z" fill="#C2C7D1"/>
<path d="M51.6943 70.6674V69.8875H49.0865V68.4868H51.6406V67.7069H49.0865V66.397H51.6943V65.6172H48.1891V70.6674H51.6943Z" fill="#C2C7D1"/>
<path d="M57.049 70.6674V65.6172H56.1516V69.1228L53.5361 65.6172H52.6157V70.6674H53.5131V67.0633L56.1823 70.6674H57.049Z" fill="#C2C7D1"/>
<path d="M60.253 70.6674V66.397H61.8023V65.6172H57.8062V66.397H59.3556V70.6674H60.253Z" fill="#C2C7D1"/>
<path d="M16.151 78.3297C17.1864 78.3297 17.8154 77.7997 18.2065 77.194L17.4395 76.8078C17.1941 77.2318 16.7032 77.5423 16.151 77.5423C15.1385 77.5423 14.3869 76.7776 14.3869 75.7175C14.3869 74.6575 15.1385 73.8928 16.151 73.8928C16.7032 73.8928 17.1941 74.2108 17.4395 74.6273L18.2065 74.2411C17.823 73.6354 17.1864 73.1054 16.151 73.1054C14.64 73.1054 13.4665 74.1654 13.4665 75.7175C13.4665 77.2697 14.64 78.3297 16.151 78.3297Z" fill="#C2C7D1"/>
<path fill-rule="evenodd" clip-rule="evenodd" d="M21.3101 78.3297C22.8441 78.3297 23.9256 77.2243 23.9256 75.7175C23.9256 74.2108 22.8441 73.1054 21.3101 73.1054C19.7761 73.1054 18.6947 74.2108 18.6947 75.7175C18.6947 77.2243 19.7761 78.3297 21.3101 78.3297ZM21.3101 77.5423C20.2747 77.5423 19.615 76.7548 19.615 75.7175C19.615 74.6727 20.2747 73.8928 21.3101 73.8928C22.3379 73.8928 23.0052 74.6727 23.0052 75.7175C23.0052 76.7548 22.3379 77.5423 21.3101 77.5423Z" fill="#C2C7D1"/>
<path d="M30.1048 78.2389V73.1887H28.8393L27.4434 76.5126L26.0551 73.1887H24.7896V78.2389H25.6869V74.491L27.2516 78.2389H27.6351L29.2075 74.491V78.2389H30.1048Z" fill="#C2C7D1"/>
<path fill-rule="evenodd" clip-rule="evenodd" d="M32.0911 78.2389V76.3536H33.441C34.5071 76.3536 35.1131 75.6267 35.1131 74.7711C35.1131 73.9155 34.5148 73.1887 33.441 73.1887H31.1937V78.2389H32.0911ZM33.3183 75.5737H32.0911V73.9685H33.3183C33.8245 73.9685 34.1927 74.2865 34.1927 74.7711C34.1927 75.2557 33.8245 75.5737 33.3183 75.5737Z" fill="#C2C7D1"/>
<path fill-rule="evenodd" clip-rule="evenodd" d="M39.8853 78.2389L37.8758 73.1887H36.756L34.7465 78.2389H35.7666L36.1424 77.2697H38.4894L38.8652 78.2389H39.8853ZM38.2363 76.4898H36.3955L37.3159 74.0821L38.2363 76.4898Z" fill="#C2C7D1"/>
<path d="M44.8773 78.2389V73.1887H43.98V76.6943L41.3645 73.1887H40.4441V78.2389H41.3415V74.6348L44.0106 78.2389H44.8773Z" fill="#C2C7D1"/>
<path d="M46.8618 78.2389V73.1887H45.9644V78.2389H46.8618Z" fill="#C2C7D1"/>
<path d="M51.4545 78.2389V77.459H48.8467V76.0583H51.4008V75.2784H48.8467V73.9685H51.4545V73.1887H47.9493V78.2389H51.4545Z" fill="#C2C7D1"/>
<path d="M54.1247 78.3297C55.5053 78.3297 56.1035 77.6104 56.1035 76.77C56.1035 75.6647 55.0806 75.4078 54.2342 75.1952C53.637 75.0452 53.1276 74.9172 53.1276 74.5288C53.1276 74.1502 53.465 73.9004 53.9943 73.9004C54.5312 73.9004 55.0757 74.0821 55.4746 74.4758L55.9885 73.8171C55.5129 73.3628 54.8687 73.113 54.071 73.113C52.9512 73.113 52.2072 73.7565 52.2072 74.5894C52.2072 75.6511 53.1765 75.8936 54.0102 76.1021C54.6391 76.2595 55.1908 76.3975 55.1908 76.8533C55.1908 77.1864 54.8993 77.5423 54.163 77.5423C53.4497 77.5423 52.8975 77.2167 52.5447 76.8457L52.0461 77.5271C52.4986 78.0041 53.1813 78.3297 54.1247 78.3297Z" fill="#C2C7D1"/>
<path d="M12.3732 86.5171C12.5777 86.4161 12.7311 86.2647 12.8334 86.0628C13.0379 85.659 13.0379 85.1542 12.8334 84.7504C12.7311 84.5485 12.5777 84.397 12.3732 84.2961C12.1686 84.1951 11.9641 84.1447 11.7084 84.1447H10.8392V86.6685H11.7084C11.913 86.6685 12.1686 86.618 12.3732 86.5171Z" fill="#C2C7D1"/>
<path d="M33.0824 85.558H32.2132V84.1952H33.1336C34.1413 84.1952 34.2192 85.558 33.0824 85.558Z" fill="#C2C7D1"/>
<path d="M52.2565 85.2551C51.9497 85.6084 51.9497 86.1637 52.2565 86.517C52.4099 86.6685 52.6144 86.7694 52.8701 86.7694C53.0746 86.7694 53.3303 86.6685 53.4837 86.517C53.7905 86.1637 53.7905 85.6084 53.4837 85.2551C53.3303 85.1037 53.1257 85.0027 52.8701 85.0027C52.6144 85.0027 52.4099 85.0532 52.2565 85.2551Z" fill="#C2C7D1"/>
<path fill-rule="evenodd" clip-rule="evenodd" d="M7.05414 80.8132H62.9427V90H7.05414V80.8132ZM12.7311 83.7913C13.0379 83.9428 13.2936 84.1951 13.447 84.4475C13.6004 84.7504 13.7026 85.1037 13.7026 85.4066C13.7026 85.7599 13.6004 86.0628 13.447 86.3657C13.2936 86.6685 13.0379 86.8704 12.7311 87.0218C12.4243 87.1733 12.0664 87.2742 11.7084 87.2742H10.1233V83.4885H11.7084C12.0664 83.5389 12.4243 83.5894 12.7311 83.7913ZM14.317 83.5389H17.1293V84.1446H15.0839V85.1036H16.9247V85.7094H15.0839V86.6684H17.2315V87.2741H14.317V83.5389ZM19.2242 84.1446C19.4287 84.1446 19.6333 84.1951 19.7867 84.2455C19.9912 84.296 20.1957 84.397 20.298 84.5484L20.6048 83.9427C20.4003 83.7912 20.1446 83.6903 19.9401 83.6398C19.7355 83.5893 19.4799 83.5389 19.2242 83.5389C18.9685 83.5389 18.7129 83.5893 18.4572 83.6903C18.2527 83.7912 18.0993 83.9427 17.9459 84.0941C17.8436 84.2455 17.7925 84.4474 17.7925 84.6493C17.7414 84.8513 17.8436 85.0532 17.9459 85.2046C18.0481 85.3055 18.2015 85.457 18.3549 85.5075C18.4572 85.5327 18.5595 85.5705 18.6617 85.6084C18.764 85.6463 18.8663 85.6841 18.9685 85.7094C19.1731 85.7598 19.3265 85.8103 19.4287 85.8608C19.4907 85.8608 19.5338 85.8978 19.581 85.9382C19.6117 85.9645 19.6441 85.9923 19.6844 86.0122L19.7355 86.0627C19.8378 86.2646 19.8378 86.517 19.6333 86.6179C19.531 86.6684 19.3265 86.7189 19.1731 86.7189C18.9685 86.7189 18.7129 86.6684 18.5083 86.5675C18.2527 86.4665 18.0482 86.3151 17.8437 86.1637L17.5368 86.7694C17.7925 86.9713 18.0481 87.1227 18.3038 87.2237C18.5595 87.3246 18.8663 87.3751 19.1731 87.3751C19.4287 87.3751 19.6844 87.3246 19.9401 87.2237C20.1446 87.1227 20.298 86.9713 20.4514 86.8199C20.6048 86.6684 20.6559 86.416 20.6559 86.2141C20.7071 85.9617 20.6048 85.7598 20.5025 85.6084C20.4003 85.457 20.2469 85.356 20.0935 85.2551C19.9919 85.23 19.8903 85.1924 19.7887 85.1547L19.7871 85.1543C19.6849 85.1164 19.5821 85.0784 19.4799 85.0532L19.0197 84.9017C18.9174 84.9017 18.8151 84.8008 18.764 84.7503C18.7129 84.6998 18.6617 84.5989 18.6617 84.4979C18.6617 84.397 18.7129 84.296 18.8151 84.2455C18.9174 84.1951 19.0708 84.1446 19.2242 84.1446ZM21.4233 83.5389H22.1391V87.3246H21.4233V83.5389ZM26.2817 85.4066H25.6681L25.617 86.5171C25.5147 86.618 25.3613 86.6685 25.2079 86.719C25.0545 86.7694 24.9523 86.7694 24.7989 86.7694C24.3387 86.7694 23.9296 86.5171 23.6739 86.1133C23.316 85.5075 23.5205 84.6999 24.1341 84.3466C24.3386 84.2456 24.5432 84.1952 24.7988 84.1952C24.9683 84.1952 25.1026 84.2298 25.26 84.2704C25.2926 84.2788 25.3262 84.2874 25.3613 84.2961C25.5658 84.3466 25.7192 84.4475 25.8726 84.599L26.2817 84.0437C26.1283 83.8418 25.8726 83.7408 25.617 83.6399C25.3613 83.5389 25.0545 83.4885 24.7988 83.4885C24.4409 83.4885 24.083 83.5894 23.7762 83.7409C23.4694 83.8923 23.2137 84.1447 23.0092 84.4475C22.8558 84.6999 22.7535 85.0532 22.7535 85.4066C22.7535 85.7599 22.8047 86.1133 23.0092 86.4161C23.1626 86.719 23.4183 86.9714 23.725 87.1228C24.0318 87.2742 24.3898 87.3752 24.7477 87.3752C25.0545 87.3752 25.3102 87.3247 25.5658 87.2237C25.8215 87.1228 26.0772 87.0218 26.2817 86.8704V85.4066ZM29.8611 83.5389H30.577V87.3246H29.9123L27.9181 84.6998V87.3246H27.2022V83.5389H27.9181L29.9123 86.1637L29.8611 83.5389ZM33.2358 86.2142L33.9006 87.3247L34.7698 87.2742L33.9006 86.0123C34.1051 85.9114 34.3096 85.7599 34.463 85.558C34.6164 85.3056 34.6675 85.0533 34.6675 84.8009C34.6675 84.4475 34.5142 84.0942 34.2585 83.8418C33.9006 83.6399 33.4915 83.4885 33.0824 83.539H31.4973V87.3247H32.2132V86.2142H33.2358ZM36.3542 86.4665C36.5588 86.6179 36.8144 86.7189 37.019 86.7189C37.2746 86.7189 37.5303 86.6179 37.6837 86.4665C37.8371 86.2646 37.9394 86.0122 37.9394 85.7598V83.5389H38.6552V85.7598C38.6552 86.0627 38.6041 86.3656 38.4507 86.6179C38.2973 86.8703 38.0928 87.0722 37.8882 87.1732C37.6326 87.3246 37.3258 87.3751 37.019 87.3751C36.7122 87.3751 36.4054 87.3246 36.0986 87.1732C35.8429 87.0722 35.6384 86.8703 35.5361 86.6179C35.3827 86.3656 35.3316 86.0627 35.3316 85.7598V83.5389H36.0474V85.7598C36.0986 86.0122 36.2008 86.2646 36.3542 86.4665ZM40.8532 84.1446C41.0578 84.1446 41.2623 84.1951 41.4157 84.2455C41.6202 84.296 41.8248 84.397 41.927 84.5484L42.2338 83.9427C42.0293 83.7912 41.7736 83.6903 41.5691 83.6398C41.3646 83.5893 41.1089 83.5389 40.8532 83.5389C40.5976 83.5389 40.3419 83.5893 40.0862 83.6903C39.8817 83.7912 39.7283 83.9426 39.575 84.0941C39.4727 84.2455 39.4215 84.4474 39.4215 84.6493C39.3704 84.8513 39.4727 85.0532 39.5749 85.2046C39.6772 85.3055 39.8306 85.457 39.984 85.5075C40.0863 85.5327 40.1885 85.5705 40.2908 85.6084C40.393 85.6463 40.4953 85.6841 40.5976 85.7094C40.8021 85.7598 40.9555 85.8103 41.0578 85.8608C41.1197 85.8608 41.1629 85.8978 41.21 85.9382C41.2407 85.9645 41.2731 85.9923 41.3134 86.0122L41.3646 86.0627C41.4668 86.2646 41.4668 86.517 41.2623 86.6179C41.16 86.6684 40.9555 86.7189 40.8021 86.7189C40.5976 86.7189 40.3419 86.6684 40.1374 86.5675C39.8817 86.4665 39.6772 86.3151 39.4727 86.1637L39.1658 86.7694C39.4215 86.9713 39.6772 87.1227 39.9328 87.2237C40.1885 87.3246 40.4953 87.3751 40.8021 87.3751C41.0578 87.3751 41.3134 87.3246 41.5691 87.2237C41.7736 87.1227 41.927 86.9713 42.0804 86.8199C42.2338 86.6684 42.285 86.416 42.285 86.2141C42.3361 85.9617 42.2338 85.7598 42.1316 85.6084C42.0293 85.457 41.8759 85.356 41.7225 85.2551C41.6203 85.2298 41.5181 85.192 41.4158 85.1542C41.3136 85.1163 41.2112 85.0784 41.1089 85.0532L40.6487 84.9017C40.5464 84.9017 40.4442 84.8008 40.393 84.7503C40.3419 84.6998 40.2908 84.5989 40.2908 84.4979C40.2908 84.397 40.3419 84.296 40.4442 84.2455C40.5464 84.1951 40.6998 84.1446 40.8532 84.1446ZM43.0523 83.5389H43.7682V85.1541H45.6601V83.5389H46.3759V87.3246H45.6601V85.8103H43.7682V87.3246H43.0523V83.5389ZM47.8604 86.9714C47.8604 86.82 47.8092 86.719 47.7581 86.6685C47.707 86.618 47.6047 86.5676 47.5024 86.5676C47.4002 86.5676 47.2979 86.618 47.2468 86.6685C47.1956 86.7695 47.1445 86.8704 47.1445 86.9714C47.1445 87.0723 47.1956 87.1733 47.2468 87.2742C47.2979 87.3247 47.4002 87.3752 47.5024 87.3752C47.6047 87.3752 47.707 87.3247 47.7581 87.2742C47.8092 87.1733 47.8604 87.0723 47.8604 86.9714ZM49.8018 85.0027C49.5973 85.0027 49.3927 85.1037 49.2393 85.2551C49.0859 85.4065 49.0348 85.6589 49.0348 85.8608C49.0348 86.1132 49.0859 86.3151 49.2393 86.4666C49.3927 86.618 49.5973 86.7189 49.8018 86.7189C50.1086 86.7189 50.4154 86.618 50.5688 86.3656L51.029 86.7189C50.8756 86.9208 50.7222 87.0723 50.5177 87.1732C50.262 87.2742 50.0063 87.3247 49.7507 87.3247C49.495 87.3247 49.2393 87.2742 48.9837 87.1227C48.7791 87.0218 48.5746 86.8199 48.4723 86.618C48.2167 86.1637 48.2167 85.558 48.4723 85.1037C48.5746 84.9018 48.7791 84.6999 48.9837 84.5989C49.2393 84.498 49.495 84.397 49.7507 84.397C50.0063 84.397 50.262 84.4475 50.4665 84.5484C50.6711 84.6494 50.8245 84.7503 50.9779 84.9522L50.5688 85.3561C50.4154 85.1542 50.1086 85.0027 49.8018 85.0027ZM54.1995 85.1037C54.0461 84.9018 53.8416 84.6999 53.6371 84.5989C53.3814 84.4475 53.1257 84.397 52.819 84.397C52.5122 84.397 52.2565 84.4475 52.0008 84.5989C51.7452 84.6999 51.5918 84.9018 51.4384 85.1037C51.285 85.3056 51.2338 85.6085 51.2338 85.8608C51.2338 86.1132 51.285 86.3656 51.4384 86.618C51.5918 86.8199 51.7963 87.0218 52.0008 87.1227C52.2565 87.2742 52.5122 87.3247 52.819 87.3247C53.1257 87.3247 53.3814 87.2237 53.6371 87.1227C53.8927 87.0218 54.0461 86.8199 54.1995 86.618C54.3529 86.4161 54.4041 86.1132 54.4041 85.8608C54.4041 85.6085 54.3529 85.3561 54.1995 85.1037ZM59.6189 84.7C59.8235 84.9019 59.9257 85.2047 59.9257 85.5076V87.3247H59.2099V85.7095C59.2099 85.5076 59.1587 85.3561 59.0565 85.2047C58.9542 85.1038 58.7497 85.0028 58.5963 85.0028C58.3918 85.0028 58.1872 85.1038 58.0338 85.2552C57.8804 85.4066 57.8293 85.6085 57.8293 85.8609V87.2743H57.1134V85.7095C57.1134 85.5076 57.0623 85.3561 56.96 85.2047C56.8578 85.1038 56.6532 85.0028 56.4998 85.0028C56.2953 85.0028 56.0908 85.1038 55.9374 85.2552C55.784 85.4066 55.7328 85.659 55.784 85.8609V87.2743H55.0681V84.3971H55.784V84.9523C56.1419 84.3971 56.9089 84.2457 57.4714 84.5485C57.6248 84.6495 57.7782 84.8514 57.8293 85.0533C57.9827 84.599 58.4429 84.3466 58.9031 84.3466C59.1587 84.3466 59.4144 84.498 59.6189 84.7Z" fill="#C2C7D1"/>
<path d="M34.6821 29.9981L35.1617 30.8089L35.6413 30.0995V29.9981L39.2863 24.3227L35.6413 25.2348L35.1617 25.3362L34.6821 25.2348H34.5862L30.8452 24.4241L34.5862 29.8968L34.6821 29.9981Z" fill="#C2C7D1"/>
<path d="M35.5434 23.0057C33.2413 23.0057 31.5147 21.0801 31.5147 18.7491V18.6478C31.5147 16.2584 32.9701 14.8653 34.5354 13.3671C36.356 11.6245 38.3251 9.73971 38.3251 5.97958C38.3356 5.99614 38.3513 6.01963 38.3709 6.04969C38.7106 6.57135 40.3399 9.0732 40.3399 11.7563C40.3399 13.8466 39.2407 15.0218 38.3377 15.9872C37.7085 16.6599 37.1745 17.2308 37.1745 17.9384C37.2684 18.6327 37.6379 19.1328 38.4629 19.1539L38.4615 19.1542L38.4694 19.154L38.4629 19.1539C38.5329 19.1347 38.5979 19.1161 38.6571 19.0986C38.6743 19.0863 38.6915 19.0714 38.7088 19.0532C40.5313 18.2424 41.7783 16.4182 41.8741 14.2899C41.8741 14.2932 41.8752 14.3057 41.8769 14.3267C41.9282 14.9469 42.5944 23.0057 35.5434 23.0057Z" fill="#C2C7D1"/>
<path d="M31.6103 51.3823L33.7206 52.9027L32.7614 55.5376L34.9676 53.9157L37.0778 55.5376L36.3105 52.9027L38.4207 51.3823H35.8308L35.0635 48.646L34.2002 51.3823H31.6103Z" fill="#C2C7D1"/>
<path d="M45.5712 52.9027L43.4609 51.3823H46.0508L46.9141 48.646L47.6815 51.3823H50.2713L48.1611 52.9027L48.9286 55.5376L46.8182 53.9157L44.612 55.5376L45.5712 52.9027Z" fill="#C2C7D1"/>
<path d="M55.2217 51.3823L57.332 52.9027L56.3727 55.5376L58.5791 53.9157L60.6894 55.5376L59.9219 52.9027L62.0321 51.3823H59.4422L58.6747 48.646L57.8116 51.3823H55.2217Z" fill="#C2C7D1"/>
<path d="M21.5397 52.9027L19.4294 51.3823H22.0193L22.8826 48.646L23.6499 51.3823H26.2398L24.1296 52.9027L24.8969 55.5376L22.7867 53.9157L20.6764 55.5376L21.5397 52.9027Z" fill="#C2C7D1"/>
<path d="M7.66855 51.3823L9.77882 52.9027L8.91554 55.5376L11.0258 53.9157L13.1361 55.5376L12.3687 52.9027L14.479 51.3823H11.8891L11.1217 48.646L10.2584 51.3823H7.66855Z" fill="#C2C7D1"/>
<path d="M11.3515 76.2198H0L2.35212 80.8132L0 85.4065H6.28937L6.3405 80.4094L11.3515 76.2198Z" fill="#C2C7D1"/>
<path d="M70 76.2198H58.6996L63.7106 80.4094V85.4065H70L67.6479 80.8132L70 76.2198Z" fill="#C2C7D1"/>
</svg>
