<svg width="97" height="123" viewBox="0 0 97 123" fill="none" xmlns="http://www.w3.org/2000/svg">
<path d="M47.3841 17.2642C49.8416 14.9518 52.2593 12.6769 52.2593 9.70446C52.2593 6.41743 51.0826 3.26697 48.8596 0.52529L48.8745 0.5L48.8577 0.522884L48.8391 0.5C48.8391 0.5 45.6819 4.75877 45.6819 7.36901C45.6819 8.97851 46.1784 10.1166 46.5898 11.0594C46.8806 11.7261 47.1289 12.2951 47.1289 12.8641C47.1289 14.238 46.4711 15.1996 45.2872 15.1996H45.1557C44.1033 15.0623 43.0508 14.238 43.0508 11.4904C43.0508 11.4904 39.3675 17.6724 39.3675 21.7938C39.3675 25.9152 43.1824 29.7618 43.1824 29.7618C42.5247 28.388 42.13 26.8769 42.2616 25.3657C42.2616 22.084 44.8441 19.6541 47.3841 17.2642Z" fill="#C2C7D1"/>
<path fill-rule="evenodd" clip-rule="evenodd" d="M70.8075 31.4105L64.2299 32.3721L61.7305 32.7843C59.7573 33.059 57.9156 34.1581 56.7316 35.944L49.7596 46.3849L49.628 46.5222L49.0476 47.3709C49.0112 47.3465 48.9696 47.3465 48.9696 47.3465L48.4455 46.9361L48.1808 46.6596L41.2087 36.3561C40.9509 36.1766 40.7492 35.9385 40.5303 35.68C40.4142 35.5429 40.2931 35.4 40.1563 35.2571C40.1563 35.1197 40.0248 34.9823 39.7617 34.8449C39.6959 34.7763 39.6302 34.7419 39.5644 34.7076C39.4986 34.6732 39.4328 34.6389 39.367 34.5702C39.367 34.4786 39.25 34.387 39.1331 34.2954C39.0746 34.2496 39.0162 34.2038 38.9724 34.1581C38.8408 34.0894 38.7422 34.0207 38.6435 33.952C38.5449 33.8833 38.4462 33.8146 38.3146 33.7459C38.2269 33.7001 38.1538 33.6543 38.0806 33.6085C37.9345 33.5169 37.7883 33.4253 37.5253 33.3338C37.5253 33.3338 37.2622 33.1964 37.1306 33.1964C37.0069 33.1533 36.909 33.1102 36.8207 33.0713C36.6277 32.9863 36.4807 32.9216 36.2098 32.9216L27.5622 31.5737L27.5271 31.5478L27.5425 31.5707L27.396 31.5478L27.6565 31.7399L48.1803 62.1836L48.3118 62.321L48.9696 63.42L49.4958 62.4584L49.6273 62.321L70.6749 31.5478L49.7589 46.9344L49.1012 47.4839C49.1012 47.4485 49.0924 47.4223 49.0795 47.4028L66.729 34.2954L70.8075 31.4105ZM32.1318 34.8449H31.9997L32.3961 35.1209L32.1318 34.8449Z" fill="#C2C7D1"/>
<path d="M13.0842 86.0299V80.2413H15.209V79.1841H9.72869V80.2413H11.8535V86.0299H13.0842Z" fill="#C2C7D1"/>
<path fill-rule="evenodd" clip-rule="evenodd" d="M19.2562 86.1531C21.36 86.1531 22.8431 84.6546 22.8431 82.6121C22.8431 80.5697 21.36 79.0712 19.2562 79.0712C17.1524 79.0712 15.6693 80.5697 15.6693 82.6121C15.6693 84.6546 17.1524 86.1531 19.2562 86.1531ZM19.2562 85.0857C17.8362 85.0857 16.9315 84.0183 16.9315 82.6121C16.9315 81.1958 17.8362 80.1386 19.2562 80.1386C20.6657 80.1386 21.5809 81.1958 21.5809 82.6121C21.5809 84.0183 20.6657 85.0857 19.2562 85.0857Z" fill="#C2C7D1"/>
<path fill-rule="evenodd" clip-rule="evenodd" d="M25.2587 86.0299V83.4743H27.11C28.5722 83.4743 29.4031 82.489 29.4031 81.3292C29.4031 80.1694 28.5827 79.1841 27.11 79.1841H24.028V86.0299H25.2587ZM26.9417 82.4171H25.2587V80.2413H26.9417C27.636 80.2413 28.1409 80.6723 28.1409 81.3292C28.1409 81.9861 27.636 82.4171 26.9417 82.4171Z" fill="#C2C7D1"/>
<path d="M35.5275 86.1531C37.4209 86.1531 38.2414 85.178 38.2414 84.0388C38.2414 82.5405 36.8386 82.1922 35.6778 81.9041C34.8587 81.7007 34.1601 81.5273 34.1601 81.0008C34.1601 80.4876 34.6229 80.1489 35.3487 80.1489C36.085 80.1489 36.8319 80.3952 37.3788 80.9289L38.0836 80.036C37.4314 79.4202 36.5479 79.0815 35.4539 79.0815C33.9182 79.0815 32.8978 79.9539 32.8978 81.0829C32.8978 82.522 34.2273 82.8508 35.3706 83.1335C36.2331 83.3467 36.9897 83.5338 36.9897 84.1517C36.9897 84.6033 36.5899 85.0857 35.5801 85.0857C34.6019 85.0857 33.8445 84.6443 33.3607 84.1414L32.6769 85.0651C33.2976 85.7118 34.2337 86.1531 35.5275 86.1531Z" fill="#C2C7D1"/>
<path fill-rule="evenodd" clip-rule="evenodd" d="M42.6462 86.1531C44.7499 86.1531 46.2331 84.6546 46.2331 82.6121C46.2331 80.5697 44.7499 79.0712 42.6462 79.0712C40.5424 79.0712 39.0593 80.5697 39.0593 82.6121C39.0593 84.6546 40.5424 86.1531 42.6462 86.1531ZM42.6462 85.0857C41.2261 85.0857 40.3215 84.0183 40.3215 82.6121C40.3215 81.1958 41.2261 80.1386 42.6462 80.1386C44.0557 80.1386 44.9708 81.1958 44.9708 82.6121C44.9708 84.0183 44.0557 85.0857 42.6462 85.0857Z" fill="#C2C7D1"/>
<path d="M48.6487 86.0299V83.074H52.1515V82.0169H48.6487V80.2413H52.2251V79.1841H47.418V86.0299H48.6487Z" fill="#C2C7D1"/>
<path d="M56.2277 86.0299V80.2413H58.3525V79.1841H52.8722V80.2413H54.997V86.0299H56.2277Z" fill="#C2C7D1"/>
<path d="M66.0749 86.0299L68.0736 79.1841H66.6956L65.3386 84.4596L63.887 79.1841H62.9088L61.4572 84.4596L60.0897 79.1841H58.7118L60.7209 86.0299H62.0357L63.3926 80.9802L64.7601 86.0299H66.0749Z" fill="#C2C7D1"/>
<path fill-rule="evenodd" clip-rule="evenodd" d="M74.7362 86.0299L71.9803 79.1841H70.4445L67.6886 86.0299H69.0876L69.603 84.7162H72.8217L73.3372 86.0299H74.7362ZM72.4746 83.659H69.9501L71.2124 80.3952L72.4746 83.659Z" fill="#C2C7D1"/>
<path fill-rule="evenodd" clip-rule="evenodd" d="M80.9304 86.0299L79.2158 83.3409C80.0573 83.2074 80.8778 82.5506 80.8778 81.3292C80.8778 80.0668 79.9731 79.1841 78.5847 79.1841H75.5026V86.0299H76.7334V83.4743H77.9535L79.5103 86.0299H80.9304ZM78.4164 82.4171H76.7334V80.2413H78.4164C79.1106 80.2413 79.6155 80.6723 79.6155 81.3292C79.6155 81.9861 79.1106 82.4171 78.4164 82.4171Z" fill="#C2C7D1"/>
<path d="M86.9149 86.0299V84.9728H83.3385V83.074H86.8412V82.0169H83.3385V80.2413H86.9149V79.1841H82.1078V86.0299H86.9149Z" fill="#C2C7D1"/>
<path fill-rule="evenodd" clip-rule="evenodd" d="M14.4178 96.2935C16.6057 96.2935 18.0889 94.8874 18.0889 92.8758C18.0889 90.8641 16.6057 89.4477 14.4178 89.4477H11.8092V96.2935H14.4178ZM14.4178 95.2364H13.0399V90.5049H14.4178C15.9851 90.5049 16.8266 91.5517 16.8266 92.8758C16.8266 94.169 15.9431 95.2364 14.4178 95.2364Z" fill="#C2C7D1"/>
<path d="M24.0842 96.2935V95.2364H20.5078V93.3376H24.0106V92.2805H20.5078V90.5049H24.0842V89.4477H19.2771V96.2935H24.0842Z" fill="#C2C7D1"/>
<path d="M28.9034 96.2935L31.6593 89.4477H30.2603L28.1355 94.99L26.0107 89.4477H24.6117L27.3676 96.2935H28.9034Z" fill="#C2C7D1"/>
<path d="M37.2327 96.2935V95.2364H33.6563V93.3376H37.1591V92.2805H33.6563V90.5049H37.2327V89.4477H32.4256V96.2935H37.2327Z" fill="#C2C7D1"/>
<path d="M42.8197 96.2935V95.2364H39.7272V89.4477H38.4965V96.2935H42.8197Z" fill="#C2C7D1"/>
<path fill-rule="evenodd" clip-rule="evenodd" d="M46.8834 96.4167C48.9872 96.4167 50.4703 94.9182 50.4703 92.8758C50.4703 90.8333 48.9872 89.3348 46.8834 89.3348C44.7797 89.3348 43.2965 90.8333 43.2965 92.8758C43.2965 94.9182 44.7797 96.4167 46.8834 96.4167ZM46.8834 95.3493C45.4634 95.3493 44.5588 94.2819 44.5588 92.8758C44.5588 91.4594 45.4634 90.4022 46.8834 90.4022C48.2929 90.4022 49.2081 91.4594 49.2081 92.8758C49.2081 94.2819 48.2929 95.3493 46.8834 95.3493Z" fill="#C2C7D1"/>
<path fill-rule="evenodd" clip-rule="evenodd" d="M52.886 96.2935V93.7379H54.7373C56.1994 93.7379 57.0304 92.7526 57.0304 91.5928C57.0304 90.433 56.21 89.4477 54.7373 89.4477H51.6553V96.2935H52.886ZM54.569 92.6807H52.886V90.5049H54.569C55.2633 90.5049 55.7682 90.9359 55.7682 91.5928C55.7682 92.2497 55.2633 92.6807 54.569 92.6807Z" fill="#C2C7D1"/>
<path d="M65.3445 96.2935V89.4477H63.6089L61.6945 93.9534L59.7906 89.4477H58.055V96.2935H59.2857V91.213L61.4315 96.2935H61.9574L64.1138 91.213V96.2935H65.3445Z" fill="#C2C7D1"/>
<path d="M71.6451 96.2935V95.2364H68.0687V93.3376H71.5714V92.2805H68.0687V90.5049H71.6451V89.4477H66.838V96.2935H71.6451Z" fill="#C2C7D1"/>
<path d="M78.9886 96.2935V89.4477H77.7579V94.1998L74.171 89.4477H72.9087V96.2935H74.1394V91.4081L77.7999 96.2935H78.9886Z" fill="#C2C7D1"/>
<path d="M83.3826 96.2935V90.5049H85.5074V89.4477H80.0271V90.5049H82.1519V96.2935H83.3826Z" fill="#C2C7D1"/>
<path d="M22.8999 106.68C24.32 106.68 25.1825 105.962 25.719 105.141L24.6671 104.617C24.3305 105.192 23.6573 105.613 22.8999 105.613C21.5114 105.613 20.4806 104.576 20.4806 103.139C20.4806 101.702 21.5114 100.666 22.8999 100.666C23.6573 100.666 24.3305 101.097 24.6671 101.661L25.719 101.138C25.193 100.317 24.32 99.5984 22.8999 99.5984C20.8277 99.5984 19.2183 101.035 19.2183 103.139C19.2183 105.243 20.8277 106.68 22.8999 106.68Z" fill="#C2C7D1"/>
<path fill-rule="evenodd" clip-rule="evenodd" d="M29.9753 106.68C32.0791 106.68 33.5622 105.182 33.5622 103.139C33.5622 101.097 32.0791 99.5984 29.9753 99.5984C27.8715 99.5984 26.3884 101.097 26.3884 103.139C26.3884 105.182 27.8715 106.68 29.9753 106.68ZM29.9753 105.613C28.5553 105.613 27.6506 104.545 27.6506 103.139C27.6506 101.723 28.5553 100.666 29.9753 100.666C31.3848 100.666 32.2999 101.723 32.2999 103.139C32.2999 104.545 31.3848 105.613 29.9753 105.613Z" fill="#C2C7D1"/>
<path d="M42.0366 106.557V99.7113H40.301L38.3866 104.217L36.4827 99.7113H34.7471V106.557H35.9778V101.477L38.1236 106.557H38.6496L40.8059 101.477V106.557H42.0366Z" fill="#C2C7D1"/>
<path fill-rule="evenodd" clip-rule="evenodd" d="M44.7607 106.557V104.001H46.612C48.0741 104.001 48.9051 103.016 48.9051 101.856C48.9051 100.697 48.0846 99.7113 46.612 99.7113H43.53V106.557H44.7607ZM46.4437 102.944H44.7607V100.768H46.4437C47.1379 100.768 47.6428 101.2 47.6428 101.856C47.6428 102.513 47.1379 102.944 46.4437 102.944Z" fill="#C2C7D1"/>
<path fill-rule="evenodd" clip-rule="evenodd" d="M55.4499 106.557L52.694 99.7113H51.1582L48.4023 106.557H49.8013L50.3167 105.243H53.5354L54.0509 106.557H55.4499ZM53.1883 104.186H50.6638L51.9261 100.922L53.1883 104.186Z" fill="#C2C7D1"/>
<path d="M62.2961 106.557V99.7113H61.0654V104.463L57.4785 99.7113H56.2162V106.557H57.4469V101.672L61.1075 106.557H62.2961Z" fill="#C2C7D1"/>
<path d="M65.0176 106.557V99.7113H63.7869V106.557H65.0176Z" fill="#C2C7D1"/>
<path d="M71.3162 106.557V105.5H67.7398V103.601H71.2425V102.544H67.7398V100.768H71.3162V99.7113H66.509V106.557H71.3162Z" fill="#C2C7D1"/>
<path d="M74.9781 106.68C76.8715 106.68 77.692 105.705 77.692 104.566C77.692 103.068 76.2891 102.719 75.1284 102.431C74.3093 102.228 73.6107 102.054 73.6107 101.528C73.6107 101.015 74.0735 100.676 74.7993 100.676C75.5356 100.676 76.2824 100.922 76.8294 101.456L77.5342 100.563C76.882 99.9474 75.9984 99.6087 74.9045 99.6087C73.3687 99.6087 72.3484 100.481 72.3484 101.61C72.3484 103.049 73.6778 103.378 74.8211 103.661C75.6836 103.874 76.4402 104.061 76.4402 104.679C76.4402 105.13 76.0405 105.613 75.0307 105.613C74.0525 105.613 73.2951 105.172 72.8112 104.669L72.1275 105.592C72.7481 106.239 73.6843 106.68 74.9781 106.68Z" fill="#C2C7D1"/>
<path d="M17.7189 117.779C17.9994 117.642 18.2098 117.437 18.35 117.163C18.6305 116.615 18.6305 115.931 18.35 115.384C18.2098 115.11 17.9994 114.905 17.7189 114.768C17.4384 114.631 17.1579 114.563 16.8073 114.563H15.6151V117.984H16.8073C17.0878 117.984 17.4384 117.916 17.7189 117.779Z" fill="#C2C7D1"/>
<path d="M46.1202 116.479H44.928V114.631H46.1903C47.5724 114.631 47.6791 116.479 46.1202 116.479Z" fill="#C2C7D1"/>
<path d="M72.416 116.068C71.9953 116.547 71.9953 117.3 72.416 117.779C72.6264 117.984 72.9069 118.121 73.2575 118.121C73.538 118.121 73.8887 117.984 74.0991 117.779C74.5198 117.3 74.5198 116.547 74.0991 116.068C73.8887 115.863 73.6082 115.726 73.2575 115.726C72.9069 115.726 72.6264 115.794 72.416 116.068Z" fill="#C2C7D1"/>
<path fill-rule="evenodd" clip-rule="evenodd" d="M10.4243 110.047H87.0714V122.5H10.4243V110.047ZM18.2098 114.084C18.6305 114.289 18.9812 114.631 19.1915 114.973C19.4019 115.384 19.5422 115.863 19.5422 116.273C19.5422 116.752 19.4019 117.163 19.1915 117.573C18.9812 117.984 18.6305 118.258 18.2098 118.463C17.789 118.668 17.2981 118.805 16.8073 118.805H14.6334V113.673H16.8073C17.2981 113.742 17.789 113.81 18.2098 114.084ZM20.3847 113.742H24.2416V114.563H21.4366V115.863H23.9611V116.684H21.4366V117.984H24.3818V118.805H20.3847V113.742ZM27.1146 114.563C27.3951 114.563 27.6756 114.631 27.886 114.7C28.1665 114.768 28.447 114.905 28.5873 115.11L29.008 114.289C28.7275 114.084 28.3769 113.947 28.0964 113.878C27.8159 113.81 27.4653 113.742 27.1146 113.742C26.764 113.742 26.4134 113.81 26.0627 113.947C25.7823 114.084 25.5719 114.289 25.3615 114.494C25.2213 114.699 25.1511 114.973 25.1511 115.247C25.081 115.521 25.2212 115.794 25.3615 116C25.5017 116.136 25.7121 116.342 25.9225 116.41C26.0627 116.444 26.203 116.496 26.3433 116.547C26.4835 116.598 26.6238 116.65 26.764 116.684C27.0445 116.752 27.2549 116.821 27.3951 116.889C27.4801 116.889 27.5393 116.939 27.6039 116.994C27.646 117.03 27.6904 117.067 27.7458 117.094L27.8159 117.163C27.9561 117.436 27.9561 117.779 27.6756 117.915C27.5354 117.984 27.2549 118.052 27.0445 118.052C26.764 118.052 26.4134 117.984 26.1329 117.847C25.7823 117.71 25.5018 117.505 25.2213 117.3L24.8005 118.121C25.1511 118.394 25.5017 118.6 25.8524 118.737C26.203 118.873 26.6238 118.942 27.0445 118.942C27.3951 118.942 27.7458 118.873 28.0964 118.737C28.3769 118.6 28.5872 118.394 28.7976 118.189C29.008 117.984 29.0781 117.642 29.0781 117.368C29.1483 117.026 29.008 116.752 28.8678 116.547C28.7275 116.342 28.5171 116.205 28.3068 116.068C28.1674 116.034 28.0281 115.983 27.8887 115.932L27.8866 115.931C27.7464 115.88 27.6055 115.828 27.4653 115.794L26.8341 115.589C26.6939 115.589 26.5536 115.452 26.4835 115.384C26.4134 115.315 26.3433 115.178 26.3433 115.042C26.3433 114.905 26.4134 114.768 26.5536 114.7C26.6939 114.631 26.9043 114.563 27.1146 114.563ZM30.1305 113.742H31.1122V118.873H30.1305V113.742ZM36.7935 116.273H35.952L35.8818 117.779C35.7416 117.916 35.5312 117.984 35.3208 118.052C35.1105 118.121 34.9702 118.121 34.7599 118.121C34.1288 118.121 33.5677 117.779 33.2171 117.231C32.7262 116.41 33.0067 115.315 33.8482 114.836C34.1287 114.7 34.4092 114.631 34.7598 114.631C34.9922 114.631 35.1765 114.678 35.3923 114.733C35.437 114.745 35.4831 114.756 35.5312 114.768C35.8117 114.836 36.0221 114.973 36.2325 115.179L36.7935 114.426C36.5831 114.152 36.2325 114.015 35.8818 113.879C35.5312 113.742 35.1105 113.673 34.7598 113.673C34.269 113.673 33.7781 113.81 33.3573 114.015C32.9366 114.221 32.586 114.563 32.3055 114.973C32.0951 115.315 31.9548 115.794 31.9548 116.273C31.9548 116.752 32.025 117.231 32.3055 117.642C32.5158 118.052 32.8665 118.395 33.2872 118.6C33.708 118.805 34.1988 118.942 34.6897 118.942C35.1105 118.942 35.4611 118.873 35.8117 118.737C36.1623 118.6 36.513 118.463 36.7935 118.258V116.273ZM41.7024 113.742H42.6842V118.873H41.7725L39.0376 115.315V118.873H38.0559V113.742H39.0376L41.7725 117.3L41.7024 113.742ZM46.3306 117.368L47.2422 118.873L48.4343 118.805L47.2422 117.094C47.5227 116.958 47.8032 116.752 48.0136 116.479C48.2239 116.137 48.2941 115.794 48.2941 115.452C48.2941 114.973 48.0837 114.494 47.7331 114.152C47.2422 113.879 46.6812 113.673 46.1202 113.742H43.9463V118.873H44.928V117.368H46.3306ZM50.6072 117.71C50.8877 117.915 51.2384 118.052 51.5189 118.052C51.8695 118.052 52.2201 117.915 52.4305 117.71C52.6409 117.436 52.7811 117.094 52.7811 116.752V113.742H53.7629V116.752C53.7629 117.163 53.6928 117.573 53.4824 117.915C53.272 118.258 52.9915 118.531 52.711 118.668C52.3604 118.873 51.9396 118.942 51.5189 118.942C51.0981 118.942 50.6774 118.873 50.2566 118.668C49.906 118.531 49.6255 118.258 49.4852 117.915C49.2749 117.573 49.2047 117.163 49.2047 116.752V113.742H50.1865V116.752C50.2566 117.094 50.3969 117.436 50.6072 117.71ZM56.7773 114.563C57.0578 114.563 57.3383 114.631 57.5487 114.7C57.8292 114.768 58.1097 114.905 58.2499 115.11L58.6707 114.289C58.3902 114.084 58.0396 113.947 57.7591 113.878C57.4786 113.81 57.1279 113.742 56.7773 113.742C56.4267 113.742 56.076 113.81 55.7254 113.947C55.445 114.084 55.2346 114.289 55.0242 114.494C54.884 114.699 54.8138 114.973 54.8138 115.247C54.7437 115.521 54.8839 115.794 55.0242 116C55.1644 116.136 55.3748 116.342 55.5852 116.41C55.7254 116.444 55.8657 116.496 56.0059 116.547C56.1462 116.598 56.2864 116.65 56.4267 116.684C56.7072 116.752 56.9176 116.821 57.0578 116.889C57.1427 116.889 57.202 116.939 57.2666 116.994C57.3087 117.03 57.3531 117.067 57.4084 117.094L57.4786 117.163C57.6188 117.436 57.6188 117.779 57.3383 117.915C57.1981 117.984 56.9176 118.052 56.7072 118.052C56.4267 118.052 56.076 117.984 55.7955 117.847C55.445 117.71 55.1645 117.505 54.884 117.3L54.4632 118.121C54.8138 118.394 55.1644 118.6 55.515 118.737C55.8657 118.873 56.2864 118.942 56.7072 118.942C57.0578 118.942 57.4084 118.873 57.7591 118.737C58.0395 118.6 58.2499 118.394 58.4603 118.189C58.6707 117.984 58.7408 117.642 58.7408 117.368C58.8109 117.026 58.6707 116.752 58.5304 116.547C58.3902 116.342 58.1798 116.205 57.9694 116.068C57.8292 116.034 57.6891 115.982 57.5489 115.931C57.4086 115.88 57.2682 115.828 57.1279 115.794L56.4968 115.589C56.3566 115.589 56.2163 115.452 56.1462 115.384C56.076 115.315 56.0059 115.178 56.0059 115.042C56.0059 114.905 56.076 114.768 56.2163 114.7C56.3565 114.631 56.5669 114.563 56.7773 114.563ZM59.7931 113.742H60.7749V115.931H63.3695V113.742H64.3513V118.873H63.3695V116.821H60.7749V118.873H59.7931V113.742ZM66.3871 118.395C66.3871 118.189 66.3169 118.052 66.2468 117.984C66.1767 117.916 66.0365 117.847 65.8962 117.847C65.756 117.847 65.6157 117.916 65.5456 117.984C65.4754 118.121 65.4053 118.258 65.4053 118.395C65.4053 118.531 65.4754 118.668 65.5456 118.805C65.6157 118.874 65.756 118.942 65.8962 118.942C66.0365 118.942 66.1767 118.874 66.2468 118.805C66.3169 118.668 66.3871 118.531 66.3871 118.395ZM69.0496 115.726C68.7691 115.726 68.4886 115.863 68.2782 116.068C68.0678 116.273 67.9977 116.615 67.9977 116.889C67.9977 117.231 68.0678 117.505 68.2782 117.71C68.4886 117.915 68.7691 118.052 69.0496 118.052C69.4704 118.052 69.8911 117.915 70.1015 117.573L70.7326 118.052C70.5222 118.326 70.3119 118.531 70.0314 118.668C69.6807 118.805 69.3301 118.873 68.9795 118.873C68.6289 118.873 68.2782 118.805 67.9276 118.6C67.6471 118.463 67.3666 118.189 67.2263 117.915C66.8757 117.3 66.8757 116.479 67.2263 115.863C67.3666 115.589 67.6471 115.315 67.9276 115.179C68.2782 115.042 68.6289 114.905 68.9795 114.905C69.3301 114.905 69.6807 114.973 69.9612 115.11C70.2417 115.247 70.4521 115.384 70.6625 115.658L70.1015 116.205C69.8911 115.931 69.4704 115.726 69.0496 115.726ZM75.0808 115.863C74.8704 115.589 74.5899 115.315 74.3094 115.179C73.9588 114.973 73.6082 114.905 73.1874 114.905C72.7667 114.905 72.416 114.973 72.0654 115.179C71.7148 115.315 71.5044 115.589 71.294 115.863C71.0837 116.136 71.0135 116.547 71.0135 116.889C71.0135 117.231 71.0837 117.573 71.294 117.915C71.5044 118.189 71.7849 118.463 72.0654 118.6C72.416 118.805 72.7667 118.873 73.1874 118.873C73.6082 118.873 73.9588 118.737 74.3094 118.6C74.66 118.463 74.8704 118.189 75.0808 117.915C75.2912 117.642 75.3613 117.231 75.3613 116.889C75.3613 116.547 75.2912 116.205 75.0808 115.863ZM82.5131 115.315C82.7936 115.589 82.9339 116 82.9339 116.41V118.874H81.9521V116.684C81.9521 116.41 81.882 116.205 81.7417 116C81.6015 115.863 81.321 115.726 81.1106 115.726C80.8301 115.726 80.5496 115.863 80.3392 116.068C80.1289 116.273 80.0587 116.547 80.0587 116.889V118.805H79.077V116.684C79.077 116.41 79.0069 116.205 78.8666 116C78.7263 115.863 78.4459 115.726 78.2355 115.726C77.955 115.726 77.6745 115.863 77.4641 116.068C77.2537 116.273 77.1836 116.616 77.2537 116.889V118.805H76.272V114.905H77.2537V115.658C77.7446 114.905 78.7965 114.7 79.5679 115.11C79.7782 115.247 79.9886 115.521 80.0587 115.794C80.2691 115.179 80.9002 114.837 81.5314 114.837C81.882 114.837 82.2326 115.042 82.5131 115.315Z" fill="#C2C7D1"/>
<path d="M48.314 41.1641L48.9718 42.2631L49.6295 41.3015V41.1641L54.6284 33.4708L49.6295 34.7072L48.9718 34.8446L48.314 34.7072H48.1824L43.052 33.6082L48.1824 41.0267L48.314 41.1641Z" fill="#C2C7D1"/>
<path d="M49.4952 31.6855C46.3381 31.6855 43.9701 29.0752 43.9701 25.9155V25.7781C43.9701 22.5392 45.9662 20.6507 48.1128 18.6199C50.6096 16.2576 53.3101 13.7027 53.3101 8.60565C53.3245 8.62811 53.3461 8.65994 53.373 8.70069C53.8389 9.40784 56.0733 12.7992 56.0733 16.4363C56.0733 19.2698 54.5658 20.8629 53.3275 22.1715C52.4645 23.0835 51.7322 23.8573 51.7322 24.8164C51.861 25.7576 52.3677 26.4356 53.4991 26.4641L53.4972 26.4646L53.5081 26.4643L53.4991 26.4641C53.5951 26.4382 53.6842 26.413 53.7654 26.3892C53.789 26.3726 53.8127 26.3523 53.8363 26.3277C56.3358 25.2286 58.0459 22.7558 58.1774 19.8708C58.1774 19.8753 58.1788 19.8922 58.1812 19.9207C58.2515 20.7614 59.1651 31.6855 49.4952 31.6855Z" fill="#C2C7D1"/>
<path d="M44.1013 70.1516L46.9954 72.2125L45.6799 75.7842L48.7055 73.5858L51.5996 75.7842L50.5472 72.2125L53.4413 70.1516H49.8895L48.8371 66.4423L47.6531 70.1516H44.1013Z" fill="#C2C7D1"/>
<path d="M63.2476 72.2125L60.3536 70.1516H63.9054L65.0893 66.4423L66.1417 70.1516H69.6936L66.7995 72.2125L67.8521 75.7842L64.9578 73.5858L61.9322 75.7842L63.2476 72.2125Z" fill="#C2C7D1"/>
<path d="M76.4826 70.1516L79.3767 72.2125L78.0611 75.7842L81.0871 73.5858L83.9811 75.7842L82.9285 72.2125L85.8226 70.1516H82.2708L81.2182 66.4423L80.0345 70.1516H76.4826Z" fill="#C2C7D1"/>
<path d="M30.2901 72.2125L27.396 70.1516H30.9479L32.1318 66.4423L33.1842 70.1516H36.736L33.842 72.2125L34.8943 75.7842L32.0003 73.5858L29.1062 75.7842L30.2901 72.2125Z" fill="#C2C7D1"/>
<path d="M11.2669 70.1516L14.1609 72.2125L12.977 75.7842L15.8711 73.5858L18.7652 75.7842L17.7128 72.2125L20.6069 70.1516H17.055L16.0027 66.4423L14.8187 70.1516H11.2669Z" fill="#C2C7D1"/>
<path d="M16.3178 103.82H0.75L3.97577 110.047L0.75 116.273H9.37542L9.44555 109.499L16.3178 103.82Z" fill="#C2C7D1"/>
<path d="M96.75 103.82H81.2523L88.1246 109.499V116.273H96.75L93.5242 110.047L96.75 103.82Z" fill="#C2C7D1"/>
</svg>
