<svg width="78" height="16" viewBox="0 0 78 16" fill="none" xmlns="http://www.w3.org/2000/svg">
<path d="M11.1768 7.26056C11.1768 9.85082 9.66246 12.6562 5.59862 12.6562C2.66939 12.6562 0 11.0472 0 7.26056C0 4.12098 2.01245 1.70802 5.99729 1.92354C10.2406 2.15928 11.1768 5.39682 11.1768 7.26056ZM3.60629 5.28749C3.22747 5.86182 3.0881 6.55091 3.0881 7.23992C3.0881 8.82584 3.88493 10.2674 5.59871 10.2674C7.25185 10.2674 8.06872 8.94349 8.06872 7.37383C8.06872 6.26366 7.79112 5.40233 7.2124 4.86579C6.57436 4.29163 5.8574 4.27248 5.41936 4.31088C4.54239 4.37045 4.02439 4.65752 3.60629 5.28749Z" fill="#C2C7D1"/>
<path d="M37.9759 3.09777C38.268 2.77579 38.4645 2.53403 38.9882 2.27266C39.5769 2.03098 40.2052 1.90791 40.8386 1.91019C41.4422 1.91019 42.1234 2.01122 42.6495 2.31299C43.7204 2.89633 43.9936 3.84197 43.9936 5.47181V12.6562H41.0157V6.73996C41.0157 5.79388 40.9967 5.44994 40.8795 5.16951C40.646 4.60856 40.1197 4.36461 39.5362 4.36461C37.9586 4.36461 37.9586 5.67273 37.9586 6.98068V12.6562H34.957V2.17225H37.9761V3.09777H37.9759Z" fill="#C2C7D1"/>
<path d="M33.4115 9.75481C33.1324 10.3386 32.2362 12.6567 28.2786 12.6567C25.2186 12.6567 23.0664 10.7953 23.0664 7.43501C23.0664 4.9595 24.2902 1.91133 28.3573 1.91133C28.9692 1.91133 30.746 1.83646 32.0689 3.25077C33.4116 4.68476 33.4903 6.68818 33.5298 7.84743H26.166C26.1462 9.12432 26.8765 10.4012 28.5153 10.4012C30.1738 10.4012 30.7459 9.32078 31.1212 8.59443L33.4115 9.75481ZM30.3911 5.96375C30.3316 5.53174 30.2524 4.96169 29.8181 4.5099C29.4428 4.13641 28.8706 3.94047 28.3374 3.94047C27.7527 3.93881 27.1938 4.18093 26.7967 4.60778C26.3823 5.05974 26.2832 5.53165 26.1847 5.96366L30.3911 5.96375Z" fill="#C2C7D1"/>
<path d="M75.9786 4.34615H78.0002V2.19009H76.0012V0H72.9722V2.18773H72.4925L71.1035 4.34615H72.9702V9.28727C72.9702 10.2843 72.9901 11.0218 73.406 11.6398C74.0591 12.5965 75.2074 12.6565 76.2562 12.6565C76.8078 12.6565 77.2064 12.5965 77.8594 12.4973V10.1076L76.7709 10.1477C75.9592 10.1477 75.9592 9.60907 75.9793 8.97133L75.9786 4.34615Z" fill="#C2C7D1"/>
<path d="M45.6584 0H48.6913V2.18834H51.8413L50.4553 4.34711H48.6715V8.97054C48.6516 9.60864 48.6516 10.1469 49.4645 10.1469L50.5551 10.1071V12.4972C49.901 12.5965 49.5053 12.6564 48.9493 12.6564C47.8991 12.6564 46.7481 12.5964 46.0942 11.6393C45.678 11.0215 45.6582 10.2839 45.6582 9.28657V0H45.6584Z" fill="#C2C7D1"/>
<path d="M61.3035 9.76216L60.7253 10.6509C60.1835 11.4412 59.1647 12.6567 56.2464 12.6567C53.1864 12.6567 51.1289 10.7953 51.1289 7.43501C51.1289 4.9595 52.3532 1.91133 56.4195 1.91133C57.0317 1.91133 58.8085 1.83646 60.1312 3.25077C61.4737 4.68476 61.5528 6.68818 61.5922 7.84743H54.23C54.2103 9.12432 54.8449 10.4012 56.4865 10.4012C58.1442 10.4012 58.6206 9.32078 58.9954 8.59443L61.3035 9.76216ZM58.4555 5.96148C58.3961 5.52955 58.3166 4.95942 57.8825 4.50772C57.5073 4.13431 56.9347 3.93828 56.4016 3.93828C55.8169 3.93662 55.2581 4.17865 54.8611 4.60568C54.4467 5.05747 54.3475 5.52946 54.249 5.96139L58.4555 5.96148Z" fill="#C2C7D1"/>
<path d="M71.8164 12.4182L68.0508 7.0133L71.1909 2.14941H67.7443L66.2621 4.44534L64.6623 2.14941H61.216L64.6041 7.0133L61.1152 12.4182H64.5612L66.3927 9.58082L68.3696 12.4182H71.8164Z" fill="#C2C7D1"/>
<path d="M15.4012 3.08672C15.6894 2.64211 16.6139 1.91016 18.0827 1.91016C20.59 1.91016 22.3529 3.8443 22.3529 7.31391C22.3529 9.44766 21.5888 12.816 17.9567 12.816C16.6505 12.816 15.6376 12.0762 15.3816 11.6396V15.9998H12.3652V2.16986H15.4012V3.08672ZM17.4377 4.30947C16.8302 4.30615 16.2569 4.59436 15.8901 5.08752C15.4595 5.62555 15.2634 6.4609 15.2634 7.37024C15.2634 8.59299 15.6161 9.33702 15.9883 9.76378C16.3325 10.1569 16.8224 10.3852 17.3395 10.3925C18.8083 10.3925 19.4546 8.81805 19.4546 7.29642C19.4546 6.01803 19.0823 4.66093 17.8487 4.36423C17.7146 4.32723 17.5765 4.30834 17.4377 4.30799V4.30947Z" fill="#C2C7D1"/>
</svg>
