<svg width="109" height="23" viewBox="0 0 109 23" fill="none" xmlns="http://www.w3.org/2000/svg">
<path d="M15.9755 10.4833C15.9755 14.0449 13.8788 17.9022 8.25193 17.9022C4.19608 17.9022 0.5 15.6899 0.5 10.4833C0.5 6.16634 3.28648 2.84852 8.80395 3.14487C14.6793 3.46901 15.9755 7.92063 15.9755 10.4833ZM5.49332 7.77029C4.9688 8.55999 4.77583 9.50749 4.77583 10.4549C4.77583 12.6355 5.87914 14.6176 8.25205 14.6176C10.541 14.6176 11.6721 12.7973 11.6721 10.639C11.6721 9.11252 11.2877 7.9282 10.4864 7.19046C9.60296 6.40099 8.61025 6.37465 8.00373 6.42745C6.78947 6.50936 6.07223 6.90409 5.49332 7.77029Z" fill="#C2C7D1"/>
<path d="M53.0823 4.75993C53.4868 4.3172 53.7589 3.98477 54.484 3.6254C55.2991 3.29309 56.1691 3.12387 57.0461 3.127C57.8818 3.127 58.8251 3.26591 59.5535 3.68085C61.0362 4.48294 61.4146 5.7832 61.4146 8.02422V17.9027H57.2913V9.76792C57.2913 8.46706 57.265 7.99415 57.1027 7.60856C56.7793 6.83726 56.0506 6.50182 55.2427 6.50182C53.0584 6.50182 53.0584 8.30049 53.0584 10.0989V17.9027H48.9023V3.48733H53.0825V4.75993H53.0823Z" fill="#C2C7D1"/>
<path d="M46.7634 13.9127C46.377 14.7154 45.1361 17.9028 39.6564 17.9028C35.4194 17.9028 32.4395 15.3433 32.4395 10.7229C32.4395 7.31913 34.134 3.1279 39.7653 3.1279C40.6125 3.1279 43.0728 3.02494 44.9044 4.96962C46.7636 6.94135 46.8726 9.69606 46.9272 11.29H36.7312C36.7038 13.0457 37.715 14.8015 39.9841 14.8015C42.2804 14.8015 43.0727 13.3159 43.5922 12.3171L46.7634 13.9127ZM42.5813 8.69997C42.4989 8.10595 42.3893 7.32213 41.788 6.70093C41.2683 6.18737 40.476 5.91796 39.7378 5.91796C38.9282 5.91568 38.1544 6.24859 37.6045 6.83552C37.0307 7.45696 36.8934 8.10583 36.7571 8.69985L42.5813 8.69997Z" fill="#C2C7D1"/>
<path d="M105.701 6.47594H108.5V3.51136H105.733V0.5H101.539V3.50812H100.874L98.9512 6.47594H101.536V13.27C101.536 14.6408 101.563 15.655 102.139 16.5047C103.044 17.8202 104.634 17.9026 106.086 17.9026C106.849 17.9026 107.401 17.8201 108.305 17.6837V14.3979L106.798 14.4531C105.674 14.4531 105.674 13.7125 105.702 12.8356L105.701 6.47594Z" fill="#C2C7D1"/>
<path d="M63.719 0.5H67.9185V3.50896H72.2799L70.3609 6.47727H67.891V12.8345C67.8635 13.7119 67.8635 14.452 68.989 14.452L70.4991 14.3973V17.6836C69.5933 17.8201 69.0455 17.9025 68.2756 17.9025C66.8216 17.9025 65.2278 17.82 64.3224 16.5041C63.7461 15.6545 63.7188 14.6404 63.7188 13.269V0.5H63.719Z" fill="#C2C7D1"/>
<path d="M85.3809 13.9228L84.5803 15.1447C83.8301 16.2314 82.4194 17.9028 78.3787 17.9028C74.1418 17.9028 71.293 15.3433 71.293 10.7229C71.293 7.31913 72.9882 3.1279 78.6184 3.1279C79.4661 3.1279 81.9263 3.02494 83.7577 4.96962C85.6166 6.94135 85.7261 9.69606 85.7806 11.29H75.5868C75.5595 13.0457 76.4381 14.8015 78.7112 14.8015C81.0064 14.8015 81.6661 13.3159 82.1851 12.3171L85.3809 13.9228ZM81.4375 8.69684C81.3552 8.10294 81.2451 7.31901 80.6441 6.69792C80.1246 6.18448 79.3318 5.91495 78.5936 5.91495C77.7841 5.91267 77.0103 6.24546 76.4606 6.83263C75.8868 7.45383 75.7495 8.10282 75.6131 8.69672L81.4375 8.69684Z" fill="#C2C7D1"/>
<path d="M99.9381 17.5746L94.7242 10.1429L99.072 3.45508H94.2998L92.2476 6.61197L90.0324 3.45508H85.2606L89.9518 10.1429L85.1211 17.5746H89.8925L92.4284 13.6733L95.1656 17.5746H99.9381Z" fill="#C2C7D1"/>
<path d="M21.8247 4.74473C22.2238 4.13339 23.5039 3.12695 25.5377 3.12695C29.0092 3.12695 31.4502 5.7864 31.4502 10.5571C31.4502 13.491 30.3922 18.1224 25.3631 18.1224C23.5545 18.1224 22.1521 17.1053 21.7975 16.5049V22.5002H17.6211V3.48404H21.8247V4.74473ZM24.6444 6.42601C23.8033 6.42144 23.0095 6.81773 22.5016 7.49583C21.9055 8.23562 21.634 9.38421 21.634 10.6346C21.634 12.3158 22.1223 13.3389 22.6377 13.9257C23.1142 14.4662 23.7926 14.7801 24.5085 14.7902C26.5423 14.7902 27.4371 12.6253 27.4371 10.5331C27.4371 8.77528 26.9216 6.90926 25.2136 6.5013C25.028 6.45042 24.8367 6.42445 24.6444 6.42396V6.42601Z" fill="#C2C7D1"/>
</svg>
