<svg width="137" height="31" viewBox="0 0 137 31" fill="none" xmlns="http://www.w3.org/2000/svg">
<path fill-rule="evenodd" clip-rule="evenodd" d="M66.0168 18.4112C66.3176 17.958 66.9888 16.7316 66.9888 16.7316C66.9888 16.7316 67.3781 15.9312 66.8309 15.3343C66.7413 15.2364 66.539 15.0183 66.2635 14.7214C65.086 13.4524 62.5723 10.7433 61.8198 9.82119C60.8912 8.68116 60.8404 8.32815 60.8057 7.06866L57.8382 4.68794C57.8382 4.68794 57.1814 4.30047 57.775 3.69691C58.3686 3.092 58.8202 2.60879 58.8202 2.60879C56.9407 1.28263 54.1217 0.81105 54.1217 0.81105C40.0713 -1.26632 37.0668 7.51833 36.6354 13.5952C44.1421 15.447 49.5955 18.4014 53.0791 20.787C54.3825 21.4205 55.611 22.1834 56.7491 23.0886C56.7491 23.0886 56.6114 21.1087 55.4623 18.2828C55.4623 18.2828 51.0681 17.0779 49.5832 14.4792C49.2925 13.9705 49.6994 13.8502 49.9177 14.1088C49.9279 14.1209 49.9417 14.1387 49.9594 14.1616C50.319 14.6269 52.2967 17.1852 58.7479 16.6112C59.8889 16.5097 62.6011 18.0095 63.6041 18.5642C63.7765 18.6595 63.8984 18.7269 63.9531 18.7535C64.7699 19.1516 65.7147 18.868 66.0168 18.4112ZM59.8566 8.06059L59.9386 8.10042L59.5786 9.29503L58.0385 8.52457L58.1345 8.42122C58.8863 7.61363 59.8483 8.05568 59.8566 8.06059Z" fill="#C2C7D1"/>
<path d="M34.3259 13.0771C33.944 10.763 33.887 8.01048 34.6301 4.8866C35.1014 2.92421 34.0847 0.531413 30.4704 1.01776C19.4009 2.72646 6.28523 15.7281 0.25 30.5C4.08571 28.3081 8.86312 26.076 13.9465 24.1261C12.1517 17.8546 16.7897 10.1201 32.1666 12.674C32.9045 12.7966 33.6205 12.9339 34.3259 13.0771Z" fill="#C2C7D1"/>
<path fill-rule="evenodd" clip-rule="evenodd" d="M119.639 22.8214L126.354 6.71421H129.534L136.25 22.8214H132.646L131.213 19.2352H124.585L123.154 22.8214H119.639ZM127.9 10.9406L125.817 16.1274H129.982L127.9 10.9406Z" fill="#C2C7D1"/>
<path fill-rule="evenodd" clip-rule="evenodd" d="M73.887 6.71421H80.3357C84.1021 6.71421 86.3788 8.99158 86.3788 12.2819V12.328C86.3788 16.0554 83.5366 17.9892 79.9964 17.9892H77.3593V22.8214H73.887V6.71421ZM80.1104 14.8362C81.8465 14.8362 82.8601 13.7777 82.8601 12.3982V12.3522C82.8601 10.7643 81.7789 9.91281 80.042 9.91281H77.3593V14.8362H80.1104Z" fill="#C2C7D1"/>
<path d="M102.777 14.7212C102.777 12.2515 103.616 10.1629 105.271 8.51284C106.925 6.86454 108.952 6.02832 111.294 6.02832C114.329 6.02832 116.153 7.2274 117.166 8.13835L115.245 10.6122C114.691 10.1446 114.131 9.81125 113.577 9.6278C112.988 9.43184 112.288 9.33251 111.497 9.33251C109.994 9.33251 108.717 9.83363 107.699 10.8215C106.686 11.8054 106.171 13.1222 106.171 14.7347C106.171 16.3458 106.671 17.6572 107.655 18.6245C108.642 19.5963 109.855 20.088 111.261 20.088C112.619 20.088 113.776 19.8021 114.703 19.2389V16.2192H111.123V13.2269H117.986V20.62L117.907 20.7113C116.362 22.445 114.139 23.3238 111.294 23.3238C108.891 23.3238 106.85 22.5045 105.226 20.8862C103.6 19.2661 102.777 17.1932 102.777 14.7212Z" fill="#C2C7D1"/>
<path d="M99.167 16.3803H92.3689V19.6693H100.937V22.8214H88.9186V6.71421H100.825V9.86494H92.3689V13.2269H99.167V16.3803Z" fill="#C2C7D1"/>
</svg>
