<svg width="101" height="22" viewBox="0 0 101 22" fill="none" xmlns="http://www.w3.org/2000/svg">
<path fill-rule="evenodd" clip-rule="evenodd" d="M48.8415 13.1349C49.0649 12.8025 49.5634 11.9032 49.5634 11.9032C49.5634 11.9032 49.8525 11.3162 49.4461 10.8785C49.3796 10.8067 49.2293 10.6468 49.0247 10.429C48.1503 9.49843 46.2835 7.51173 45.7246 6.83554C45.035 5.99952 44.9973 5.74064 44.9715 4.81702L42.7677 3.07116C42.7677 3.07116 42.2799 2.78701 42.7208 2.3444C43.1616 1.9008 43.497 1.54644 43.497 1.54644C42.1012 0.573929 40.0076 0.228103 40.0076 0.228103C29.5732 -1.2953 27.3419 5.14677 27.0215 9.60315C32.5963 10.9612 36.6463 13.1277 39.2334 14.8771C40.2014 15.3417 41.1137 15.9012 41.9589 16.565C41.9589 16.565 41.8566 15.113 41.0033 13.0407C41.0033 13.0407 37.7399 12.1571 36.6372 10.2514C36.4213 9.8784 36.7235 9.79012 36.8856 9.97977C36.8931 9.98867 36.9034 10.0017 36.9165 10.0185C37.1836 10.3597 38.6524 12.2358 43.4433 11.8149C44.2907 11.7404 46.3048 12.8403 47.0497 13.2471C47.1777 13.317 47.2683 13.3664 47.3089 13.3859C47.9155 13.6779 48.6172 13.4699 48.8415 13.1349ZM44.2667 5.54444L44.3276 5.57364L44.0602 6.44969L42.9164 5.88468L42.9878 5.80889C43.5461 5.21666 44.2605 5.54083 44.2667 5.54444Z" fill="#C2C7D1"/>
<path d="M25.3063 9.22319C25.0227 7.52619 24.9804 5.50769 25.5323 3.21684C25.8823 1.77775 25.1273 0.0230359 22.4431 0.379689C14.2224 1.63274 4.48205 11.1672 0 22C2.84858 20.3926 6.39651 18.7557 10.1717 17.3258C8.83873 12.7267 12.2831 7.05472 23.7028 8.92756C24.2508 9.01748 24.7825 9.11818 25.3063 9.22319Z" fill="#C2C7D1"/>
<path fill-rule="evenodd" clip-rule="evenodd" d="M88.6637 16.369L93.6506 4.55709H96.0123L101 16.369H98.3234L97.2594 13.7392H92.3372L91.274 16.369H88.6637ZM94.7987 7.65641L93.2523 11.4601H96.3451L94.7987 7.65641Z" fill="#C2C7D1"/>
<path fill-rule="evenodd" clip-rule="evenodd" d="M54.6863 4.55709H59.4754C62.2725 4.55709 63.9633 6.22716 63.9633 8.64005V8.67388C63.9633 11.4073 61.8525 12.8254 59.2234 12.8254H57.265V16.369H54.6863V4.55709ZM59.3081 10.5132C60.5974 10.5132 61.3501 9.73695 61.3501 8.72535V8.69159C61.3501 7.52716 60.5472 6.90273 59.2573 6.90273H57.265V10.5132H59.3081Z" fill="#C2C7D1"/>
<path d="M76.1412 10.4289C76.1412 8.61773 76.7643 7.08614 77.9936 5.87608C79.2221 4.66733 80.7276 4.0541 82.4668 4.0541C84.7206 4.0541 86.0749 4.93342 86.8276 5.60146L85.4011 7.4156C84.9893 7.07269 84.5731 6.82825 84.1621 6.69372C83.7243 6.55002 83.2047 6.47718 82.6172 6.47718C81.5011 6.47718 80.5526 6.84466 79.7969 7.5691C79.0441 8.29065 78.6622 9.25628 78.6622 10.4388C78.6622 11.6202 79.033 12.5819 79.7641 13.2913C80.4967 14.004 81.3976 14.3645 82.4422 14.3645C83.4504 14.3645 84.3096 14.1549 84.9983 13.7418V11.5274H82.3395V9.33304H87.4366V14.7547L87.3778 14.8216C86.2305 16.093 84.5791 16.7374 82.4668 16.7374C80.6821 16.7374 79.1663 16.1367 77.9601 14.9499C76.7524 13.7618 76.1412 12.2417 76.1412 10.4289Z" fill="#C2C7D1"/>
<path d="M73.4604 11.6455H68.4118V14.0575H74.7749V16.369H65.8495V4.55709H74.6915V6.86763H68.4118V9.33304H73.4604V11.6455Z" fill="#C2C7D1"/>
</svg>
