<svg width="102" height="21" viewBox="0 0 102 21" fill="none" xmlns="http://www.w3.org/2000/svg">
<path d="M0 20.5V18.9965L12.655 2.65603H0.419041V0.641844H15.6721V2.14539L2.98916 18.4858H15.6721V20.5H0ZM17.5898 20.5L26.5014 0.5H28.5687L37.4803 20.5H35.1057L32.815 15.2518H22.1713L19.8526 20.5H17.5898ZM23.0374 13.2376H31.949L27.5071 3.10993L23.0374 13.2376ZM40.3389 20.5V0.641844H48.6638C50.9546 0.641844 52.6587 1.22814 53.7761 2.40071C54.6142 3.2896 55.0333 4.36761 55.0333 5.63475C55.0333 7.79078 53.9996 9.3227 51.9323 10.2305C54.726 11.0816 56.1228 12.6986 56.1228 15.0816C56.1228 16.7647 55.4802 18.0887 54.1952 19.0532C52.9101 20.0177 51.1874 20.5 49.027 20.5H40.3389ZM42.5179 9.49291H48.3007C49.6602 9.49291 50.7498 9.18085 51.5692 8.55674C52.3886 7.93262 52.7984 7.04374 52.7984 5.89007C52.7984 4.88771 52.4165 4.10284 51.653 3.53546C50.908 2.94917 49.8464 2.65603 48.4683 2.65603H42.5179V9.49291ZM42.5179 18.4858H49.0829C50.5728 18.4858 51.7461 18.1738 52.6028 17.5496C53.4596 16.9066 53.8879 16.0177 53.8879 14.883C53.8879 13.786 53.4409 12.9445 52.5469 12.3582C51.6716 11.7718 50.3866 11.4787 48.6918 11.4787H42.5179V18.4858ZM59.502 20.5V0.641844H67.827C70.1177 0.641844 71.8218 1.22814 72.9393 2.40071C73.7774 3.2896 74.1964 4.36761 74.1964 5.63475C74.1964 7.79078 73.1628 9.3227 71.0955 10.2305C73.8891 11.0816 75.2859 12.6986 75.2859 15.0816C75.2859 16.7647 74.6434 18.0887 73.3583 19.0532C72.0733 20.0177 70.3506 20.5 68.1902 20.5H59.502ZM61.681 9.49291H67.4638C68.8234 9.49291 69.9129 9.18085 70.7323 8.55674C71.5519 7.93262 71.9615 7.04374 71.9615 5.89007C71.9615 4.88771 71.5798 4.10284 70.8161 3.53546C70.0712 2.94917 69.0097 2.65603 67.6314 2.65603H61.681V9.49291ZM61.681 18.4858H68.246C69.736 18.4858 70.9093 18.1738 71.766 17.5496C72.6227 16.9066 73.051 16.0177 73.051 14.883C73.051 13.786 72.6041 12.9445 71.7101 12.3582C70.8348 11.7718 69.5497 11.4787 67.8549 11.4787H61.681V18.4858ZM78.8608 20.5V0.641844H81.0678V20.5H78.8608ZM84.3168 20.5L91.8316 10.3723L84.5961 0.641844H87.1942L93.2004 8.75532L99.1508 0.641844H101.721L94.4855 10.344L102 20.5H99.3743L93.1166 11.961L86.8589 20.5H84.3168Z" fill="#C2C7D1"/>
</svg>