<svg width="76" height="16" viewBox="0 0 76 16" fill="none" xmlns="http://www.w3.org/2000/svg">
<path d="M0 15.5V14.3723L9.42922 2.11702H0.312227V0.606383H11.6773V1.73404L2.22722 13.9894H11.6773V15.5H0ZM13.1061 15.5L19.7462 0.5H21.2865L27.9265 15.5H26.1572L24.4504 11.5638H16.5198L14.7922 15.5H13.1061ZM17.1651 10.0532H23.8051L20.4955 2.45745L17.1651 10.0532ZM30.0564 15.5V0.606383H36.2593C37.9662 0.606383 39.2359 1.0461 40.0685 1.92553C40.6929 2.5922 41.0052 3.40071 41.0052 4.35106C41.0052 5.96809 40.235 7.11702 38.6947 7.79787C40.7762 8.43617 41.817 9.64894 41.817 11.4362C41.817 12.6986 41.3382 13.6915 40.3807 14.4149C39.4232 15.1383 38.1396 15.5 36.5299 15.5H30.0564ZM31.68 7.24468H35.9887C37.0018 7.24468 37.8135 7.01064 38.4241 6.54255C39.0346 6.07447 39.34 5.4078 39.34 4.54255C39.34 3.79078 39.0555 3.20213 38.4865 2.7766C37.9314 2.33688 37.1405 2.11702 36.1136 2.11702H31.68V7.24468ZM31.68 13.9894H36.5715C37.6817 13.9894 38.5559 13.7553 39.1943 13.2872C39.8326 12.8049 40.1517 12.1383 40.1517 11.2872C40.1517 10.4645 39.8187 9.83336 39.1526 9.39362C38.5004 8.95387 37.5429 8.73404 36.2801 8.73404H31.68V13.9894ZM44.3348 15.5V0.606383H50.5378C52.2446 0.606383 53.5143 1.0461 54.3469 1.92553C54.9714 2.5922 55.2836 3.40071 55.2836 4.35106C55.2836 5.96809 54.5134 7.11702 52.9731 7.79787C55.0546 8.43617 56.0954 9.64894 56.0954 11.4362C56.0954 12.6986 55.6166 13.6915 54.6591 14.4149C53.7016 15.1383 52.4181 15.5 50.8083 15.5H44.3348ZM45.9584 7.24468H50.2672C51.2802 7.24468 52.092 7.01064 52.7025 6.54255C53.3131 6.07447 53.6184 5.4078 53.6184 4.54255C53.6184 3.79078 53.334 3.20213 52.765 2.7766C52.2099 2.33688 51.419 2.11702 50.392 2.11702H45.9584V7.24468ZM45.9584 13.9894H50.85C51.9602 13.9894 52.8344 13.7553 53.4727 13.2872C54.111 12.8049 54.4302 12.1383 54.4302 11.2872C54.4302 10.4645 54.0971 9.83336 53.4311 9.39362C52.7789 8.95387 51.8214 8.73404 50.5586 8.73404H45.9584V13.9894ZM58.7591 15.5V0.606383H60.4034V15.5H58.7591ZM62.8242 15.5L68.4235 7.90425L63.0324 0.606383H64.9682L69.4435 6.69149L73.8771 0.606383H75.7918L70.401 7.88298L76 15.5H74.0436L69.381 9.09574L64.7184 15.5H62.8242Z" fill="#C2C7D1"/>
</svg>
