<svg width="117" height="27" viewBox="0 0 117 27" fill="none" xmlns="http://www.w3.org/2000/svg">
<path d="M91.1453 18.9697C91.6517 18.984 92.1558 18.8958 92.6284 18.7101C93.101 18.5244 93.5326 18.245 93.8982 17.888L95.2631 19.399C94.3617 20.3427 93.1115 21.0445 91.1685 21.0445C87.8375 21.0445 85.6859 18.7963 85.6859 15.7506C85.6735 15.0528 85.7987 14.3596 86.0543 13.7121C86.3099 13.0645 86.6905 12.4758 87.1737 11.9808C87.6569 11.4858 88.2328 11.0945 88.8673 10.8303C89.5017 10.5661 90.1818 10.4342 90.8673 10.4426C94.1751 10.4426 96.0509 13.0058 95.8864 16.5586H88.0657C88.3438 18.0331 89.3599 18.9767 91.1419 18.9767L91.1453 18.9697ZM93.5251 14.8648C93.312 13.4847 92.5056 12.4702 90.887 12.4702C89.3842 12.4702 88.3357 13.336 88.0657 14.8648H93.5251ZM39.7998 18.8599L45.8189 12.6354H39.9447V10.6702H48.6112V12.6755L42.5921 18.8977H48.6911V20.8522H39.8022L39.7998 18.8599ZM55.447 18.9708C55.9534 18.9852 56.4575 18.8969 56.9301 18.7113C57.4027 18.5256 57.8343 18.2461 58.1999 17.8892L59.5671 19.399C58.6657 20.3427 57.4155 21.0445 55.4725 21.0445C52.1415 21.0445 49.9899 18.7963 49.9899 15.7506C49.9775 15.0528 50.1027 14.3596 50.3583 13.7121C50.6139 13.0645 50.9945 12.4758 51.4777 11.9808C51.9609 11.4858 52.5368 11.0945 53.1713 10.8303C53.8057 10.5661 54.4858 10.4342 55.1713 10.4426C58.4791 10.4426 60.355 13.0058 60.1904 16.5586H52.3697C52.6478 18.0331 53.6639 18.9767 55.4459 18.9767L55.447 18.9708ZM57.8292 14.8648C57.6171 13.4847 56.8096 12.4702 55.191 12.4702C53.6882 12.4702 52.6397 13.336 52.3697 14.8648H57.8292ZM73.1832 15.7376C73.1832 12.4915 75.57 10.4473 78.2001 10.4473C78.8311 10.4387 79.4563 10.5708 80.0318 10.8345C80.6072 11.0982 81.119 11.487 81.5311 11.9736V5.97555H83.6572V20.8381H81.5311V19.4226C81.1266 19.929 80.6155 20.3364 80.0355 20.6145C79.4555 20.8926 78.8215 21.0343 78.1804 21.0292C75.6291 21.0292 73.1844 18.9767 73.1844 15.7412L73.1832 15.7376ZM81.6504 15.7223C81.5751 12.8678 78.1746 11.5113 76.2049 13.5566C74.2353 15.602 75.6719 19.0392 78.4793 19.0381C80.3053 19.0381 81.6493 17.5518 81.6493 15.7353L81.6504 15.7223ZM97.271 18.6842L99.1966 17.6674C99.7157 18.6111 100.703 19.1808 101.765 19.1537C102.97 19.1537 103.591 18.5238 103.591 17.8113C103.591 16.9856 102.428 16.8134 101.164 16.5492C99.4631 16.1953 97.6927 15.6114 97.6927 13.5177C97.6927 11.9099 99.1954 10.4249 101.563 10.4461C103.416 10.4461 104.814 11.201 105.601 12.4183L103.817 13.4162C103.57 13.0443 103.234 12.7426 102.841 12.5395C102.448 12.3364 102.01 12.2387 101.569 12.2556C100.426 12.2556 99.8315 12.8253 99.8315 13.4764C99.8315 14.2077 100.754 14.4118 102.2 14.7385C103.845 15.0924 105.71 15.6539 105.71 17.77C105.71 19.1855 104.505 21.0646 101.659 21.0445C99.5732 21.0445 98.1087 20.1893 97.264 18.6854L97.271 18.6842ZM111.483 16.3262L109.797 18.1982V20.8404H107.671V5.9779H109.797V15.7022L114.311 10.6572H116.9L112.987 15.0216L117 20.8393H114.594L111.483 16.3262ZM66.7459 10.4638C64.2178 10.4638 62.1114 12.1329 62.1114 14.899V20.8404H64.278V15.1526C64.278 13.4835 65.22 12.4868 66.8293 12.4868C68.4387 12.4868 69.2393 13.4847 69.2393 15.1526V20.8192H71.3943V14.8777C71.3943 12.1116 69.2682 10.4426 66.7598 10.4426L66.7459 10.4638ZM15.5661 7.36743V26.5H0L15.5661 7.36743ZM15.5661 0.5C15.5664 2.60188 14.7467 4.61783 13.2873 6.10452C11.8278 7.59122 9.84818 8.42693 7.78362 8.42786C5.71907 8.42693 3.7394 7.59122 2.27997 6.10452C0.82054 4.61783 0.000850554 2.60188 0.00115799 0.5H15.5661ZM18.1301 26.4976C18.131 24.3966 18.9513 22.3818 20.4106 20.8962C21.8699 19.4105 23.8488 18.5754 25.9126 18.5745C27.9763 18.5754 29.9553 19.4105 31.4146 20.8962C32.8739 22.3818 33.6941 24.3966 33.6951 26.4976H18.1301ZM18.1301 19.6302V0.502358H33.6962L18.1301 19.6302Z" fill="#C2C7D1"/>
</svg>