<svg width="87" height="20" viewBox="0 0 87 20" fill="none" xmlns="http://www.w3.org/2000/svg">
<path d="M67.7747 13.9971C68.1513 14.0075 68.5261 13.9431 68.8775 13.8074C69.229 13.6717 69.5499 13.4675 69.8218 13.2066L70.8367 14.3108C70.1664 15.0004 69.2368 15.5133 67.792 15.5133C65.3151 15.5133 63.7152 13.8703 63.7152 11.6447C63.7059 11.1348 63.7991 10.6282 63.9891 10.155C64.1791 9.68176 64.4622 9.25153 64.8215 8.88979C65.1808 8.52805 65.609 8.24217 66.0808 8.04908C66.5526 7.85599 67.0583 7.75963 67.568 7.76572C70.0277 7.76572 71.4225 9.63882 71.3002 12.2351H65.4848C65.6915 13.3126 66.4471 14.0022 67.7722 14.0022L67.7747 13.9971ZM69.5443 10.9973C69.3858 9.98879 68.7862 9.24748 67.5826 9.24748C66.4652 9.24748 65.6855 9.88018 65.4848 10.9973H69.5443ZM29.5947 13.9169L34.0704 9.36816H29.7024V7.93208H36.1468V9.39747L31.6711 13.9445H36.2062V15.3728H29.5965L29.5947 13.9169ZM41.2298 13.9979C41.6064 14.0084 41.9812 13.9439 42.3326 13.8082C42.684 13.6725 43.005 13.4683 43.2769 13.2075L44.2935 14.3108C43.6232 15.0004 42.6936 15.5133 41.2488 15.5133C38.7719 15.5133 37.172 13.8703 37.172 11.6447C37.1627 11.1348 37.2559 10.6282 37.4459 10.155C37.636 9.68176 37.919 9.25153 38.2783 8.88979C38.6376 8.52805 39.0658 8.24217 39.5376 8.04908C40.0094 7.85599 40.5151 7.75963 41.0248 7.76572C43.4845 7.76572 44.8793 9.63882 44.757 12.2351H38.9416C39.1484 13.3126 39.9039 14.0022 41.229 14.0022L41.2298 13.9979ZM43.0012 10.9973C42.8435 9.98879 42.243 9.24748 41.0394 9.24748C39.922 9.24748 39.1423 9.88018 38.9416 10.9973H43.0012ZM54.4183 11.6352C54.4183 9.263 56.1931 7.76917 58.1488 7.76917C58.618 7.76287 59.0829 7.85947 59.5108 8.05217C59.9387 8.24487 60.3193 8.52899 60.6257 8.88458V4.50136H62.2066V15.3624H60.6257V14.3281C60.3249 14.6981 59.9449 14.9958 59.5136 15.199C59.0823 15.4023 58.6108 15.5058 58.1341 15.5021C56.237 15.5021 54.4192 14.0022 54.4192 11.6378L54.4183 11.6352ZM60.7144 11.624C60.6584 9.53797 58.1298 8.54668 56.6652 10.0414C55.2006 11.5361 56.2689 14.0479 58.3564 14.047C59.7142 14.047 60.7136 12.9609 60.7136 11.6335L60.7144 11.624ZM72.3297 13.7884L73.7616 13.0454C74.1476 13.735 74.8816 14.1513 75.6716 14.1315C76.5676 14.1315 77.0294 13.6712 77.0294 13.1506C77.0294 12.5472 76.1644 12.4213 75.2245 12.2282C73.9597 11.9696 72.6433 11.543 72.6433 10.0129C72.6433 8.83804 73.7607 7.75279 75.5209 7.76831C76.8993 7.76831 77.9383 8.31998 78.5242 9.20955L77.1974 9.9388C77.0138 9.66699 76.764 9.44649 76.4715 9.29808C76.1791 9.14968 75.8537 9.07827 75.526 9.0906C74.6757 9.0906 74.2337 9.50694 74.2337 9.98276C74.2337 10.5172 74.9195 10.6663 75.9947 10.9051C77.2181 11.1637 78.6052 11.574 78.6052 13.1204C78.6052 14.1548 77.7092 15.5279 75.5924 15.5133C74.0416 15.5133 72.9526 14.8883 72.3245 13.7893L72.3297 13.7884ZM82.8974 12.0653L81.6438 13.4333V15.3642H80.0629V4.50308H81.6438V11.6093L85.0004 7.9226H86.9259L84.0156 11.112L87 15.3633H85.2106L82.8974 12.0653ZM49.6316 7.78123C47.7517 7.78123 46.1854 9.00095 46.1854 11.0223V15.3642H47.7965V11.2076C47.7965 9.98793 48.4969 9.25955 49.6936 9.25955C50.8903 9.25955 51.4856 9.98879 51.4856 11.2076V15.3486H53.0881V11.0068C53.0881 8.98544 51.5071 7.76572 49.6419 7.76572L49.6316 7.78123ZM11.5748 5.51851V19.5H0L11.5748 5.51851ZM11.5748 0.5C11.575 2.03599 10.9655 3.50918 9.88028 4.59561C8.79507 5.68204 7.32301 6.29275 5.78782 6.29344C4.25264 6.29275 2.78058 5.68204 1.69536 4.59561C0.610146 3.50918 0.000632463 2.03599 0.000861066 0.5H11.5748ZM13.4814 19.4983C13.4821 17.9629 14.092 16.4906 15.1771 15.4049C16.2622 14.3192 17.7337 13.709 19.2683 13.7083C20.8029 13.709 22.2745 14.3192 23.3596 15.4049C24.4447 16.4906 25.0546 17.9629 25.0553 19.4983H13.4814ZM13.4814 14.4798V0.501723H25.0562L13.4814 14.4798Z" fill="#C2C7D1"/>
</svg>
